<svg width="39" height="20" viewBox="0 0 39 20" fill="none" xmlns="http://www.w3.org/2000/svg">
<path d="M38.35 0H0.65C0.477609 0 0.312279 0.0702374 0.190381 0.195262C0.0684819 0.320286 0 0.489856 0 0.666667C0 3.35533 1.14042 6.39167 3.21108 9.21667C5.27178 12.0144 7.96106 14.2601 11.05 15.7625V19.3333C11.05 19.5101 11.1185 19.6797 11.2404 19.8047C11.3623 19.9298 11.5276 20 11.7 20H27.3C27.4724 20 27.6377 19.9298 27.7596 19.8047C27.8815 19.6797 27.95 19.5101 27.95 19.3333V15.7625C31.0389 14.2601 33.7282 12.0144 35.7888 9.21667C37.8596 6.39167 39 3.35533 39 0.666667C39 0.489856 38.9315 0.320286 38.8096 0.195262C38.6877 0.0702374 38.5224 0 38.35 0ZM37.6727 1.33333C37.6353 1.78203 37.5677 2.22754 37.4704 2.66667H1.52961C1.43227 2.22754 1.36467 1.78203 1.3273 1.33333H37.6727ZM34.7497 8.4155C32.7844 11.097 30.0928 13.3123 27.1602 14.6667H24.7C24.5276 14.6667 24.3623 14.7369 24.2404 14.8619C24.1185 14.987 24.05 15.1565 24.05 15.3333C24.05 15.5101 24.1185 15.6797 24.2404 15.8047C24.3623 15.9298 24.5276 16 24.7 16H26.65V18.6667H12.35V16H22.1C22.2724 16 22.4377 15.9298 22.5596 15.8047C22.6815 15.6797 22.75 15.5101 22.75 15.3333C22.75 15.1565 22.6815 14.987 22.5596 14.8619C22.4377 14.7369 22.2724 14.6667 22.1 14.6667H11.8398C8.90719 13.3123 6.21587 11.097 4.25027 8.4155C3.20125 6.98483 2.40346 5.47075 1.90328 4H37.0967C36.5965 5.47075 35.7987 6.98483 34.7497 8.4155Z" fill="#979797"/>
</svg>
