<svg width="44" height="41" viewBox="0 0 44 41" fill="none" xmlns="http://www.w3.org/2000/svg">
<path d="M38.35 21H0.65C0.477609 21 0.312279 21.0702 0.190381 21.1953C0.0684819 21.3203 0 21.4899 0 21.6667C0 24.3553 1.14042 27.3917 3.21108 30.2167C5.27178 33.0144 7.96106 35.2601 11.05 36.7625V40.3333C11.05 40.5101 11.1185 40.6797 11.2404 40.8047C11.3623 40.9298 11.5276 41 11.7 41H27.3C27.4724 41 27.6377 40.9298 27.7596 40.8047C27.8815 40.6797 27.95 40.5101 27.95 40.3333V36.7625C31.0389 35.2601 33.7282 33.0144 35.7888 30.2167C37.8596 27.3917 39 24.3553 39 21.6667C39 21.4899 38.9315 21.3203 38.8096 21.1953C38.6877 21.0702 38.5224 21 38.35 21ZM37.6727 22.3333C37.6353 22.782 37.5677 23.2275 37.4704 23.6667H1.52961C1.43227 23.2275 1.36467 22.782 1.3273 22.3333H37.6727ZM34.7497 29.4155C32.7844 32.097 30.0928 34.3123 27.1602 35.6667H24.7C24.5276 35.6667 24.3623 35.7369 24.2404 35.8619C24.1185 35.987 24.05 36.1565 24.05 36.3333C24.05 36.5101 24.1185 36.6797 24.2404 36.8047C24.3623 36.9298 24.5276 37 24.7 37H26.65V39.6667H12.35V37H22.1C22.2724 37 22.4377 36.9298 22.5596 36.8047C22.6815 36.6797 22.75 36.5101 22.75 36.3333C22.75 36.1565 22.6815 35.987 22.5596 35.8619C22.4377 35.7369 22.2724 35.6667 22.1 35.6667H11.8398C8.90719 34.3123 6.21587 32.097 4.25027 29.4155C3.20125 27.9848 2.40346 26.4707 1.90328 25H37.0967C36.5965 26.4707 35.7987 27.9848 34.7497 29.4155Z" fill="#979797"/>
<path d="M42.1043 3.96216L17.4464 3.33558L5.82396 0.0243179C5.72741 -0.00318622 5.62597 -0.00742446 5.52756 0.0119341C5.42915 0.0312927 5.33644 0.0737239 5.25667 0.135913C5.1769 0.198103 5.11222 0.278367 5.0677 0.370435C5.02317 0.462503 5 0.563882 5 0.666653V11.3333C5 11.4361 5.02317 11.5375 5.0677 11.6296C5.11222 11.7216 5.1769 11.8019 5.25667 11.8641C5.33644 11.9263 5.42915 11.9687 5.52756 11.9881C5.62597 12.0074 5.72741 12.0032 5.82396 11.9757L17.4464 8.66442L42.1073 8.03776C42.6151 8.02489 43.0978 7.80833 43.4516 7.43457C43.8055 7.06081 44.0024 6.55964 44 6.03867V5.96133C44.0022 5.43986 43.8049 4.93831 43.4504 4.56448C43.0959 4.19065 42.6126 3.97438 42.1043 3.96216ZM14.1 3.76599V8.23401L12.8 8.60442V3.39558L14.1 3.76599ZM6.3 9.33334H6.95C7.12239 9.33334 7.28772 9.2631 7.40962 9.13808C7.53152 9.01305 7.6 8.84348 7.6 8.66667C7.6 8.48986 7.53152 8.32029 7.40962 8.19527C7.28772 8.07024 7.12239 8 6.95 8H6.3V6.66667H6.95C7.12239 6.66667 7.28772 6.59643 7.40962 6.47141C7.53152 6.34638 7.6 6.17681 7.6 6C7.6 5.82319 7.53152 5.65362 7.40962 5.52859C7.28772 5.40357 7.12239 5.33333 6.95 5.33333H6.3V3.99999H6.95C7.12239 3.99999 7.28772 3.92976 7.40962 3.80473C7.53152 3.67971 7.6 3.51014 7.6 3.33333C7.6 3.15651 7.53152 2.98695 7.40962 2.86192C7.28772 2.7369 7.12239 2.66666 6.95 2.66666H6.3V1.54374L11.5 3.02499V8.97501L6.3 10.4563V9.33334ZM16.7 7.49325L15.4 7.86367V4.13633L16.7 4.50675V7.49325ZM42.7 6.03867C42.701 6.21191 42.6359 6.3787 42.5186 6.50331C42.4012 6.62792 42.2409 6.70044 42.0721 6.70534L18 7.31667V4.68333L42.0691 5.29491C42.2384 5.29919 42.3993 5.37141 42.5173 5.49607C42.6353 5.62072 42.7009 5.78787 42.7 5.96158V6.03867Z" fill="#979797"/>
</svg>
