<svg width="39" height="12" viewBox="0 0 39 12" fill="none" xmlns="http://www.w3.org/2000/svg">
<path d="M37.1043 3.96216L12.4464 3.33558L0.823956 0.0243179C0.727409 -0.00318622 0.62597 -0.00742446 0.527562 0.0119341C0.429154 0.0312927 0.336442 0.0737239 0.256669 0.135913C0.176895 0.198103 0.11222 0.278367 0.0676952 0.370435C0.0231706 0.462503 2.3196e-06 0.563882 0 0.666653V11.3333C2.3196e-06 11.4361 0.0231706 11.5375 0.0676952 11.6296C0.11222 11.7216 0.176895 11.8019 0.256669 11.8641C0.336442 11.9263 0.429154 11.9687 0.527562 11.9881C0.62597 12.0074 0.727409 12.0032 0.823956 11.9757L12.4464 8.66442L37.1073 8.03776C37.6151 8.02489 38.0978 7.80833 38.4516 7.43457C38.8055 7.06081 39.0024 6.55964 39 6.03867V5.96133C39.0022 5.43986 38.8049 4.93831 38.4504 4.56448C38.0959 4.19065 37.6126 3.97438 37.1043 3.96216ZM9.09999 3.76599V8.23401L7.8 8.60442V3.39558L9.09999 3.76599ZM1.3 9.33334H1.95C2.12239 9.33334 2.28772 9.2631 2.40962 9.13808C2.53152 9.01305 2.6 8.84348 2.6 8.66667C2.6 8.48986 2.53152 8.32029 2.40962 8.19527C2.28772 8.07024 2.12239 8 1.95 8H1.3V6.66667H1.95C2.12239 6.66667 2.28772 6.59643 2.40962 6.47141C2.53152 6.34638 2.6 6.17681 2.6 6C2.6 5.82319 2.53152 5.65362 2.40962 5.52859C2.28772 5.40357 2.12239 5.33333 1.95 5.33333H1.3V3.99999H1.95C2.12239 3.99999 2.28772 3.92976 2.40962 3.80473C2.53152 3.67971 2.6 3.51014 2.6 3.33333C2.6 3.15651 2.53152 2.98695 2.40962 2.86192C2.28772 2.7369 2.12239 2.66666 1.95 2.66666H1.3V1.54374L6.5 3.02499V8.97501L1.3 10.4563V9.33334ZM11.7 7.49325L10.4 7.86367V4.13633L11.7 4.50675V7.49325ZM37.7 6.03867C37.701 6.21191 37.6359 6.3787 37.5186 6.50331C37.4012 6.62792 37.2409 6.70044 37.0721 6.70534L13 7.31667V4.68333L37.0691 5.29491C37.2384 5.29919 37.3993 5.37141 37.5173 5.49607C37.6353 5.62072 37.7009 5.78787 37.7 5.96158V6.03867Z" fill="#979797"/>
</svg>
