<svg width="39" height="38" viewBox="0 0 39 38" fill="none" xmlns="http://www.w3.org/2000/svg">
<path d="M35.0426 19.4678C35.0426 18.9544 34.8903 18.4526 34.6051 18.0257C34.3199 17.5988 33.9145 17.2661 33.4402 17.0697C32.9659 16.8732 32.4439 16.8218 31.9404 16.9219C31.4369 17.0221 30.9744 17.2693 30.6114 17.6323C30.2483 17.9954 30.0011 18.4579 29.901 18.9614C29.8008 19.4649 29.8522 19.9869 30.0487 20.4612C30.2451 20.9355 30.5778 21.3409 31.0047 21.6261C31.4316 21.9113 31.9334 22.0636 32.4468 22.0636C33.135 22.0628 33.7948 21.7891 34.2814 21.3024C34.7681 20.8158 35.0418 20.156 35.0426 19.4678ZM31.1489 19.4678C31.1489 19.2111 31.2251 18.9602 31.3677 18.7468C31.5103 18.5333 31.713 18.367 31.9501 18.2687C32.1873 18.1705 32.4483 18.1448 32.7 18.1949C32.9518 18.245 33.183 18.3686 33.3646 18.5501C33.5461 18.7316 33.6697 18.9629 33.7198 19.2146C33.7698 19.4664 33.7441 19.7273 33.6459 19.9645C33.5477 20.2016 33.3813 20.4043 33.1679 20.547C32.9544 20.6896 32.7035 20.7657 32.4468 20.7657C32.1027 20.7653 31.7728 20.6284 31.5295 20.3851C31.2862 20.1418 31.1494 19.8119 31.1489 19.4678Z" fill="#979797"/>
<path d="M35.0425 2.5957C34.2725 2.5957 33.5197 2.82406 32.8794 3.2519C32.2391 3.67973 31.74 4.28783 31.4453 4.9993C31.1506 5.71076 31.0735 6.49364 31.2237 7.24893C31.374 8.00421 31.7448 8.69799 32.2893 9.24252C32.8339 9.78706 33.5276 10.1579 34.2829 10.3081C35.0382 10.4584 35.8211 10.3813 36.5326 10.0866C37.244 9.79185 37.8521 9.2928 38.28 8.6525C38.7078 8.0122 38.9362 7.2594 38.9362 6.48932C38.935 5.45703 38.5244 4.46736 37.7944 3.73742C37.0645 3.00748 36.0748 2.59688 35.0425 2.5957ZM35.0425 9.08506C34.5292 9.08506 34.0273 8.93283 33.6004 8.6476C33.1736 8.36238 32.8409 7.95698 32.6444 7.48267C32.4479 7.00836 32.3965 6.48644 32.4967 5.98292C32.5968 5.47939 32.8441 5.01687 33.2071 4.65385C33.5701 4.29083 34.0326 4.04361 34.5361 3.94345C35.0397 3.84329 35.5616 3.8947 36.0359 4.09116C36.5102 4.28763 36.9156 4.62033 37.2008 5.0472C37.4861 5.47407 37.6383 5.97593 37.6383 6.48932C37.6375 7.17752 37.3638 7.83731 36.8772 8.32393C36.3905 8.81056 35.7307 9.08429 35.0425 9.08506Z" fill="#979797"/>
<path d="M25.9576 15.5743C26.5993 15.5743 27.2266 15.384 27.7602 15.0275C28.2938 14.671 28.7097 14.1642 28.9553 13.5713C29.2008 12.9784 29.2651 12.326 29.1399 11.6966C29.0147 11.0672 28.7057 10.4891 28.2519 10.0353C27.7981 9.58153 27.22 9.2725 26.5906 9.14731C25.9612 9.02211 25.3088 9.08637 24.7159 9.33195C24.123 9.57753 23.6162 9.99341 23.2597 10.527C22.9032 11.0606 22.7129 11.6879 22.7129 12.3296C22.7139 13.1899 23.056 14.0146 23.6643 14.6229C24.2726 15.2312 25.0973 15.5734 25.9576 15.5743ZM25.9576 10.3828C26.3426 10.3828 26.719 10.497 27.0392 10.7109C27.3593 10.9248 27.6088 11.2289 27.7562 11.5846C27.9035 11.9404 27.9421 12.3318 27.867 12.7094C27.7919 13.0871 27.6064 13.434 27.3342 13.7062C27.0619 13.9785 26.715 14.1639 26.3374 14.239C25.9597 14.3142 25.5683 14.2756 25.2126 14.1283C24.8568 13.9809 24.5528 13.7314 24.3389 13.4112C24.1249 13.0911 24.0108 12.7147 24.0108 12.3296C24.0114 11.8135 24.2167 11.3187 24.5816 10.9537C24.9466 10.5887 25.4414 10.3834 25.9576 10.3828Z" fill="#979797"/>
<path d="M16.8722 16.8721H9.08497C8.91286 16.8721 8.7478 16.9404 8.6261 17.0621C8.50441 17.1838 8.43604 17.3489 8.43604 17.521V21.4146C8.43604 21.5867 8.50441 21.7518 8.6261 21.8735C8.7478 21.9952 8.91286 22.0636 9.08497 22.0636H16.8722C17.0443 22.0636 17.2094 21.9952 17.3311 21.8735C17.4528 21.7518 17.5211 21.5867 17.5211 21.4146V17.521C17.5211 17.3489 17.4528 17.1838 17.3311 17.0621C17.2094 16.9404 17.0443 16.8721 16.8722 16.8721ZM16.2233 20.7657H9.73391V18.1699H16.2233V20.7657Z" fill="#979797"/>
<path d="M38.2872 33.7447H33.5163C34.4571 32.9867 35.1396 31.9555 35.4695 30.7933C35.7995 29.6311 35.7607 28.3952 35.3586 27.2559C34.9564 26.1167 34.2107 25.1303 33.2242 24.4328C32.2378 23.7353 31.0592 23.3611 29.8511 23.3617C29.1956 23.3617 28.5662 23.5032 27.8997 23.653C27.1174 23.8288 26.3082 24.0106 25.3085 24.0106C24.3088 24.0106 23.4996 23.8288 22.7173 23.653C22.0508 23.5032 21.4214 23.3617 20.766 23.3617V13.6277C20.765 12.7674 20.4228 11.9427 19.8145 11.3344C19.2063 10.7261 18.3815 10.3839 17.5213 10.383H16.8723V8.43617C16.8723 8.26406 16.804 8.099 16.6823 7.9773C16.5606 7.8556 16.3955 7.78723 16.2234 7.78723H14.9255V3.89362H17.5213V5.84042C17.5213 6.01253 17.5896 6.17759 17.7113 6.29929C17.833 6.42099 17.9981 6.48936 18.1702 6.48936H20.766C20.9381 6.48936 21.1031 6.42099 21.2248 6.29929C21.3465 6.17759 21.4149 6.01253 21.4149 5.84042V3.24468C21.4139 2.38443 21.0718 1.5597 20.4635 0.951412C19.8552 0.343126 19.0305 0.000966147 18.1702 0H10.383C9.86683 0.000579688 9.37199 0.205875 9.00702 0.570847C8.64205 0.935819 8.43675 1.43066 8.43617 1.94681V3.24468C8.43617 3.41679 8.50454 3.58185 8.62624 3.70355C8.74794 3.82525 8.913 3.89362 9.0851 3.89362H11.0319V7.78723H9.73404C9.56193 7.78723 9.39687 7.8556 9.27517 7.9773C9.15347 8.099 9.0851 8.26406 9.0851 8.43617V10.383H8.43617C7.57592 10.3839 6.75119 10.7261 6.1429 11.3344C5.53461 11.9427 5.19245 12.7674 5.19149 13.6277V31.7979C5.19076 32.5003 5.41922 33.1838 5.84221 33.7447H0.648936C0.476828 33.7447 0.311768 33.813 0.190069 33.9347C0.0683698 34.0564 0 34.2215 0 34.3936C0.000966148 35.2539 0.343126 36.0786 0.951412 36.6869C1.5597 37.2952 2.38443 37.6373 3.24468 37.6383H35.6915C36.5517 37.6373 37.3765 37.2952 37.9848 36.6869C38.593 36.0786 38.9352 35.2539 38.9362 34.3936C38.9362 34.2215 38.8678 34.0564 38.7461 33.9347C38.6244 33.813 38.4593 33.7447 38.2872 33.7447ZM22.4327 24.9191C23.2446 25.1017 24.1648 25.3085 25.3085 25.3085C26.4523 25.3085 27.3724 25.1017 28.1843 24.9191C28.8047 24.7799 29.34 24.6596 29.8511 24.6596C31.0558 24.6596 32.2112 25.1382 33.0631 25.9901C33.915 26.8419 34.3936 27.9974 34.3936 29.2021C34.3936 30.4069 33.915 31.5623 33.0631 32.4142C32.2112 33.2661 31.0558 33.7447 29.8511 33.7447H20.766C19.5612 33.7447 18.4058 33.2661 17.5539 32.4142C16.702 31.5623 16.2234 30.4069 16.2234 29.2021C16.2234 27.9974 16.702 26.8419 17.5539 25.9901C18.4058 25.1382 19.5612 24.6596 20.766 24.6596C21.277 24.6596 21.8124 24.7799 22.4327 24.9191ZM14.9255 29.2021C14.9258 29.4189 14.9382 29.6356 14.9624 29.8511H6.48936V15.5745H19.4681V23.5088C18.1787 23.8044 17.0276 24.5282 16.2026 25.5622C15.3776 26.5962 14.9274 27.8793 14.9255 29.2021ZM9.73404 1.94681C9.73423 1.77476 9.80267 1.60981 9.92432 1.48815C10.046 1.3665 10.2109 1.29807 10.383 1.29787H18.1702C18.6864 1.29845 19.1812 1.50375 19.5462 1.86872C19.9111 2.23369 20.1164 2.72853 20.117 3.24468V5.19149H18.8191V3.24468C18.8191 3.07257 18.7508 2.90751 18.6291 2.78581C18.5074 2.66411 18.3423 2.59574 18.1702 2.59574H9.73404V1.94681ZM12.3298 3.89362H13.6277V7.78723H12.3298V3.89362ZM10.383 9.0851H15.5745V10.383H10.383V9.0851ZM8.43617 11.6808H17.5213C18.0374 11.6814 18.5323 11.8867 18.8972 12.2517C19.2622 12.6167 19.4675 13.1115 19.4681 13.6277V14.2766H6.48936V13.6277C6.48994 13.1115 6.69524 12.6167 7.06021 12.2517C7.42518 11.8867 7.92002 11.6814 8.43617 11.6808ZM6.48936 31.7979V31.1489H15.2604C15.6228 32.1673 16.2597 33.0656 17.1007 33.7447H8.43617C7.92002 33.7441 7.42518 33.5388 7.06021 33.1738C6.69524 32.8089 6.48994 32.314 6.48936 31.7979ZM35.6915 36.3404H3.24468C2.84219 36.3399 2.4497 36.215 2.12106 35.9826C1.79241 35.7502 1.54372 35.4219 1.40908 35.0425H37.5271C37.3924 35.4219 37.1438 35.7502 36.8151 35.9826C36.4865 36.215 36.094 36.3399 35.6915 36.3404Z" fill="#979797"/>
<path d="M20.1169 26.606C20.1169 26.7781 20.1853 26.9431 20.307 27.0648C20.4287 27.1865 20.5938 27.2549 20.7659 27.2549C21.2769 27.2549 21.8123 27.3752 22.4327 27.5145C23.2445 27.6971 24.1647 27.9038 25.3084 27.9038C26.4522 27.9038 27.3724 27.6971 28.1842 27.5145C28.8046 27.3752 29.3399 27.2549 29.851 27.2549C30.0231 27.2549 30.1882 27.1865 30.3099 27.0648C30.4316 26.9431 30.4999 26.7781 30.4999 26.606C30.4999 26.4339 30.4316 26.2688 30.3099 26.1471C30.1882 26.0254 30.0231 25.957 29.851 25.957C29.1956 25.957 28.5661 26.0985 27.8996 26.2483C27.1173 26.4241 26.3081 26.606 25.3084 26.606C24.3087 26.606 23.4995 26.4241 22.7172 26.2483C22.0508 26.0985 21.4213 25.957 20.7659 25.957C20.5938 25.957 20.4287 26.0254 20.307 26.1471C20.1853 26.2688 20.1169 26.4339 20.1169 26.606Z" fill="#979797"/>
</svg>
