<svg width="38" height="38" viewBox="0 0 40 40" fill="none" xmlns="http://www.w3.org/2000/svg">
<path d="M40 19.3333C39.9998 14.2059 37.9629 9.28846 34.3372 5.6628C30.7115 2.03713 25.7941 0.0001768 20.6667 0H19.3334C14.2058 0 9.28833 2.0369 5.66263 5.6626C2.03694 9.28831 3.83468e-05 14.2058 3.83468e-05 19.3333C-0.00384698 20.8223 0.287553 22.2972 0.857379 23.6729C1.42721 25.0485 2.26415 26.2974 3.31979 27.3475C4.02785 28.0548 4.82616 28.6657 5.69403 29.1642C7.13211 35.365 12.7016 40 19.3334 40H20.6667C27.2983 40 32.8677 35.3652 34.3058 29.1647C36.0367 28.1726 37.4748 26.741 38.4747 25.0146C39.4746 23.2882 40.0008 21.3284 40 19.3333ZM4.26237 26.4045C3.33097 25.478 2.59254 24.376 2.08978 23.1622C1.58703 21.9485 1.32993 20.6471 1.33337 19.3333C1.33337 14.5594 3.22979 9.98107 6.60544 6.60541C9.9811 3.22976 14.5595 1.33333 19.3334 1.33333H20.6667C21.9044 1.33333 23.0913 1.825 23.9665 2.70017C24.8417 3.57534 25.3333 4.76232 25.3333 6C25.3333 7.23768 24.8417 8.42466 23.9665 9.29983C23.0913 10.175 21.9044 10.6667 20.6667 10.6667H16.6667C10.4175 10.6667 5.33337 15.7508 5.33337 22V26C5.33337 26.4671 5.35617 26.9285 5.40178 27.3842C4.99818 27.0864 4.61732 26.7589 4.26237 26.4045ZM33.3333 26C33.3333 32.9844 27.6511 38.6667 20.6667 38.6667H19.3334C12.3489 38.6667 6.6667 32.9844 6.6667 26V22C6.6697 19.3488 7.72423 16.807 9.59894 14.9322C11.4737 13.0575 14.0154 12.003 16.6667 12H23.3333C25.9846 12.003 28.5264 13.0575 30.4011 14.9322C32.2758 16.807 33.3303 19.3488 33.3333 22V26ZM34.5982 27.385C34.6432 26.9294 34.666 26.4678 34.6667 26V22C34.6667 16.1007 30.1356 11.2405 24.3711 10.7147C25.0299 10.1987 25.5733 9.55035 25.9661 8.81143C26.3589 8.07251 26.5925 7.25945 26.6517 6.42471C26.7109 5.58996 26.5944 4.75208 26.3098 3.96512C26.0252 3.17817 25.5788 2.45961 24.9993 1.85583C28.9007 2.82684 32.3653 5.07466 34.8419 8.24167C37.3184 11.4087 38.6648 15.313 38.6667 19.3333C38.6674 20.9004 38.2995 22.4457 37.5927 23.8444C36.886 25.2431 35.8602 26.4559 34.5982 27.385Z" fill="#979797"/>
<path d="M23.3333 14H16.6667C14.3689 14.0026 12.166 14.9165 10.5413 16.5413C8.91653 18.166 8.0026 20.3689 8 22.6667V26.6667C8 32.9159 13.0842 38 19.3333 38H20.6667C26.9158 38 32 32.9159 32 26.6667V22.6667C31.9974 20.3689 31.0835 18.166 29.4587 16.5413C27.834 14.9165 25.6311 14.0026 23.3333 14ZM30.6667 24V26.6667C30.6673 28.0263 30.3899 29.3717 29.8516 30.6202C29.3133 31.8687 28.5254 32.9939 27.5363 33.9268L26.4714 32.8619C26.4095 32.8 26.336 32.7509 26.2551 32.7174C26.1742 32.6839 26.0876 32.6666 26 32.6666C25.9125 32.6666 25.8258 32.6839 25.7449 32.7174C25.664 32.7509 25.5905 32.8 25.5286 32.8619C25.4667 32.9238 25.4176 32.9973 25.3841 33.0782C25.3506 33.1591 25.3333 33.2458 25.3333 33.3333C25.3333 33.4209 25.3506 33.5076 25.3841 33.5885C25.4176 33.6693 25.4667 33.7428 25.5286 33.8048L26.5045 34.7807C24.8059 36.0088 22.7627 36.6689 20.6667 36.6667H19.3333C17.2373 36.6689 15.1941 36.0088 13.4955 34.7807L14.4714 33.8048C14.5333 33.7428 14.5824 33.6693 14.6159 33.5885C14.6494 33.5076 14.6667 33.4209 14.6667 33.3333C14.6667 33.2458 14.6494 33.1591 14.6159 33.0782C14.5824 32.9973 14.5333 32.9238 14.4714 32.8619C14.4095 32.8 14.336 32.7509 14.2551 32.7174C14.1742 32.6839 14.0876 32.6666 14 32.6666C13.9124 32.6666 13.8258 32.6839 13.7449 32.7174C13.664 32.7509 13.5905 32.8 13.5286 32.8619L12.4638 33.9268C11.4746 32.9939 10.6867 31.8687 10.1484 30.6202C9.61005 29.3717 9.33269 28.0263 9.33333 26.6667V22.6667C9.33319 21.5775 9.57603 20.5021 10.0441 19.5187C10.5122 18.5353 11.1938 17.6687 12.0392 16.9821L12.8619 17.8047C12.9869 17.9298 13.1565 18 13.3333 18C13.5101 18 13.6797 17.9298 13.8047 17.8047C13.9298 17.6797 14 17.5101 14 17.3333C14 17.1565 13.9298 16.9869 13.8047 16.8619L13.1667 16.2238C14.2402 15.6381 15.4438 15.3319 16.6667 15.3333H23.3333C24.5562 15.3319 25.7598 15.6381 26.8333 16.2238L26.1952 16.8619C26.0702 16.9869 26 17.1565 26 17.3333C26 17.5101 26.0702 17.6797 26.1952 17.8047C26.3203 17.9298 26.4899 18 26.6667 18C26.8435 18 27.0131 17.9298 27.1381 17.8047L27.9608 16.9821C28.8062 17.6687 29.4878 18.5353 29.9559 19.5187C30.424 20.5021 30.6668 21.5775 30.6667 22.6667V24Z" fill="#979797"/>
<path d="M14 26C14.5303 25.9991 15.0386 25.6828 15.4136 25.1203C15.7885 24.5579 15.9994 23.7954 16 23C16 22.7348 15.9298 22.4804 15.8047 22.2929C15.6797 22.1054 15.5101 22 15.3333 22C15.1565 22 14.987 22.1054 14.8619 22.2929C14.7369 22.4804 14.6667 22.7348 14.6667 23C14.6667 23.2652 14.5964 23.5196 14.4714 23.7071C14.3464 23.8946 14.1768 24 14 24C13.8232 24 13.6536 23.8946 13.5286 23.7071C13.4036 23.5196 13.3333 23.2652 13.3333 23C13.3333 22.7348 13.2631 22.4804 13.1381 22.2929C13.013 22.1054 12.8435 22 12.6667 22C12.4899 22 12.3203 22.1054 12.1953 22.2929C12.0702 22.4804 12 22.7348 12 23C12.0006 23.7954 12.2115 24.5579 12.5864 25.1203C12.9614 25.6828 13.4697 25.9991 14 26Z" fill="#979797"/>
<path d="M27.3333 22C27.1565 22 26.987 22.1054 26.8619 22.2929C26.7369 22.4804 26.6667 22.7348 26.6667 23C26.6667 23.2652 26.5964 23.5196 26.4714 23.7071C26.3464 23.8946 26.1768 24 26 24C25.8232 24 25.6536 23.8946 25.5286 23.7071C25.4036 23.5196 25.3333 23.2652 25.3333 23C25.3333 22.7348 25.2631 22.4804 25.1381 22.2929C25.013 22.1054 24.8435 22 24.6667 22C24.4899 22 24.3203 22.1054 24.1953 22.2929C24.0702 22.4804 24 22.7348 24 23C24 23.7956 24.2107 24.5587 24.5858 25.1213C24.9609 25.6839 25.4696 26 26 26C26.5304 26 27.0391 25.6839 27.4142 25.1213C27.7893 24.5587 28 23.7956 28 23C28 22.7348 27.9298 22.4804 27.8047 22.2929C27.6797 22.1054 27.5101 22 27.3333 22Z" fill="#979797"/>
<path d="M20.6667 30.5C20.6667 30.6326 20.5964 30.7598 20.4714 30.8536C20.3464 30.9473 20.1768 31 20 31C19.8232 31 19.6536 30.9473 19.5286 30.8536C19.4036 30.7598 19.3333 30.6326 19.3333 30.5C19.3333 30.3674 19.2631 30.2402 19.1381 30.1464C19.013 30.0527 18.8435 30 18.6667 30C18.4899 30 18.3203 30.0527 18.1953 30.1464C18.0702 30.2402 18 30.3674 18 30.5C18 30.8978 18.2107 31.2794 18.5858 31.5607C18.9609 31.842 19.4696 32 20 32C20.5304 32 21.0391 31.842 21.4142 31.5607C21.7893 31.2794 22 30.8978 22 30.5C22 30.3674 21.9298 30.2402 21.8047 30.1464C21.6797 30.0527 21.5101 30 21.3333 30C21.1565 30 20.987 30.0527 20.8619 30.1464C20.7369 30.2402 20.6667 30.3674 20.6667 30.5Z" fill="#979797"/>
<path d="M14 28C14.7911 28 15.5645 27.7068 16.2223 27.1573C16.8801 26.6079 17.3928 25.827 17.6955 24.9134C17.9983 23.9998 18.0775 22.9945 17.9231 22.0246C17.7688 21.0546 17.3878 20.1637 16.8284 19.4645C16.269 18.7652 15.5563 18.289 14.7804 18.0961C14.0044 17.9031 13.2002 18.0022 12.4693 18.3806C11.7384 18.759 11.1136 19.3999 10.6741 20.2222C10.2346 21.0444 10 22.0111 10 23C10.0012 24.3256 10.423 25.5965 11.1729 26.5339C11.9228 27.4712 12.9395 27.9985 14 28ZM14 19.4286C14.5651 19.4286 15.1175 19.638 15.5873 20.0305C16.0572 20.4229 16.4234 20.9807 16.6397 21.6333C16.8559 22.2859 16.9125 23.004 16.8022 23.6968C16.692 24.3895 16.4199 25.0259 16.0203 25.5254C15.6207 26.0249 15.1116 26.365 14.5574 26.5028C14.0032 26.6406 13.4287 26.5699 12.9066 26.2996C12.3845 26.0293 11.9383 25.5715 11.6244 24.9842C11.3104 24.3969 11.1429 23.7064 11.1429 23C11.1437 22.0531 11.445 21.1453 11.9806 20.4758C12.5163 19.8063 13.2425 19.4296 14 19.4286Z" fill="#979797"/>
<path d="M26 18C25.2089 18 24.4355 18.2932 23.7777 18.8427C23.1199 19.3921 22.6072 20.173 22.3045 21.0866C22.0017 22.0002 21.9225 23.0055 22.0769 23.9754C22.2312 24.9454 22.6122 25.8363 23.1716 26.5355C23.731 27.2348 24.4437 27.711 25.2196 27.9039C25.9956 28.0969 26.7998 27.9978 27.5307 27.6194C28.2616 27.241 28.8864 26.6001 29.3259 25.7778C29.7654 24.9556 30 23.9889 30 23C29.9988 21.6744 29.577 20.4035 28.8271 19.4661C28.0772 18.5288 27.0605 18.0015 26 18ZM26 26.5714C25.4349 26.5714 24.8825 26.362 24.4127 25.9695C23.9428 25.5771 23.5766 25.0193 23.3603 24.3667C23.1441 23.7141 23.0875 22.996 23.1978 22.3032C23.308 21.6105 23.5801 20.9741 23.9797 20.4746C24.3793 19.9751 24.8884 19.635 25.4426 19.4972C25.9968 19.3594 26.5713 19.4301 27.0934 19.7004C27.6155 19.9707 28.0617 20.4285 28.3756 21.0158C28.6896 21.6031 28.8571 22.2936 28.8571 23C28.8563 23.9469 28.555 24.8547 28.0194 25.5242C27.4837 26.1937 26.7575 26.5704 26 26.5714Z" fill="#979797"/>
<path d="M18.5714 26C17.6246 26.001 16.7168 26.3525 16.0472 26.9774C15.3777 27.6023 15.0011 28.4496 15 29.3333V30.6667C15.0011 31.5504 15.3777 32.3977 16.0472 33.0226C16.7168 33.6475 17.6246 33.999 18.5714 34H21.4286C22.3754 33.999 23.2832 33.6475 23.9528 33.0226C24.6223 32.3977 24.9989 31.5504 25 30.6667V29.3333C24.9989 28.4496 24.6223 27.6023 23.9528 26.9774C23.2832 26.3525 22.3754 26.001 21.4286 26H18.5714ZM23.5714 29.3333V30.6667C23.5708 31.1969 23.3448 31.7053 22.9431 32.0802C22.5414 32.4552 21.9967 32.6661 21.4286 32.6667H18.5714C18.0033 32.6661 17.4586 32.4552 17.0569 32.0802C16.6552 31.7053 16.4292 31.1969 16.4286 30.6667V29.3333C16.4292 28.8031 16.6552 28.2947 17.0569 27.9198C17.4586 27.5448 18.0033 27.3339 18.5714 27.3333H21.4286C21.9967 27.3339 22.5414 27.5448 22.9431 27.9198C23.3448 28.2947 23.5708 28.8031 23.5714 29.3333Z" fill="#979797"/>
</svg>
