<svg width="39" height="39" viewBox="0 0 39 39" fill="none" xmlns="http://www.w3.org/2000/svg">
<path d="M33.1989 4.9092C29.5266 1.74345 24.6503 0 19.4681 0C14.2858 0 9.40957 1.74345 5.73724 4.9092C2.0375 8.09856 0 12.3471 0 16.8723C0 21.8487 2.50749 26.5313 6.884 29.7465C7.12291 30.2426 7.38549 30.7309 7.67172 31.2112L6.19912 31.9475C6.09135 32.0014 6.00071 32.0843 5.93737 32.1868C5.87402 32.2893 5.84047 32.4074 5.84047 32.5279C5.84047 32.6484 5.87402 32.7665 5.93737 32.8691C6.00071 32.9716 6.09135 33.0544 6.19912 33.1083L8.02093 34.0193C8.39721 34.2083 8.70253 34.5136 8.89164 34.8899L9.80259 36.7118C9.85649 36.8195 9.93933 36.9102 10.0418 36.9735C10.1444 37.0369 10.2625 37.0704 10.383 37.0704C10.5035 37.0704 10.6216 37.0369 10.7241 36.9735C10.8266 36.9102 10.9095 36.8195 10.9634 36.7118L11.4592 35.72C13.9116 37.7998 16.7263 38.9362 19.4681 38.9362H28.5532C28.6503 38.9362 28.7462 38.9143 28.8338 38.8723C28.9214 38.8303 28.9985 38.7691 29.0593 38.6934L34.7673 31.5813C35.3618 30.9764 35.6939 30.1616 35.6915 29.3135V26.2033C37.8145 23.4359 38.9362 20.2144 38.9362 16.8723C38.9362 12.3471 36.8987 8.09856 33.1989 4.9092ZM1.29787 16.8723C1.29787 8.28456 9.449 1.29787 19.4681 1.29787C21.6625 1.29396 23.8437 1.63784 25.9304 2.3167C25.7628 3.5509 24.8267 5.43638 23.4951 7.17886C22.03 9.09516 20.4117 10.383 19.4681 10.383C15.5317 10.383 11.9652 11.5056 9.4258 13.5439C6.65565 15.7672 5.19149 18.9377 5.19149 22.7128C5.2014 24.2424 5.43808 25.7621 5.8938 27.2223C2.94836 24.3873 1.29787 20.7211 1.29787 16.8723ZM31.299 20.2109C31.0471 20.4586 30.8468 20.7538 30.7097 21.0793C30.5726 21.4049 30.5013 21.7544 30.5 22.1077V28.3305L29.3515 29.8069C29.1881 29.4126 28.9299 29.0648 28.5999 28.7942C28.27 28.5235 27.8783 28.3384 27.4598 28.2552C27.0412 28.172 26.6085 28.1933 26.2002 28.3172C25.7918 28.4412 25.4202 28.6638 25.1185 28.9656C25.0906 28.9934 25.0653 29.0237 25.043 29.0562L19.1323 37.631C16.728 37.5384 14.2571 36.4571 12.092 34.552C12.2684 34.3291 12.4912 34.1473 12.745 34.0193L14.5668 33.1083C14.6746 33.0544 14.7652 32.9716 14.8286 32.8691C14.8919 32.7665 14.9255 32.6484 14.9255 32.5279C14.9255 32.4074 14.8919 32.2893 14.8286 32.1868C14.7652 32.0843 14.6746 32.0014 14.5668 31.9475L12.745 31.0366C12.3687 30.8475 12.0634 30.5422 11.8743 30.166L10.9634 28.3441C10.9095 28.2363 10.8266 28.1457 10.7241 28.0823C10.6216 28.019 10.5035 27.9854 10.383 27.9854C10.2625 27.9854 10.1444 28.019 10.0418 28.0823C9.93933 28.1457 9.85649 28.2363 9.80259 28.3441L8.89164 30.1659C8.84346 30.262 8.78732 30.3538 8.72381 30.4405C7.27895 27.9811 6.48936 25.2642 6.48936 22.7128C6.48936 19.345 7.78561 16.5244 10.2381 14.556C12.548 12.702 15.8259 11.6809 19.4681 11.6809C22.6819 11.6809 25.5663 12.4528 27.8094 13.9133C29.9561 15.311 31.417 17.2994 32.0625 19.6888C31.7789 19.816 31.5204 19.9928 31.299 20.2109ZM10.383 34.9704L10.0525 34.3094C9.73732 33.6824 9.22848 33.1735 8.60141 32.8584L7.94046 32.5279L8.60141 32.1974C9.2285 31.8823 9.73735 31.3734 10.0525 30.7463L10.383 30.0854L10.7134 30.7464C11.0286 31.3735 11.5375 31.8823 12.1645 32.1974L12.8255 32.5279L12.1645 32.8584C11.5375 33.1736 11.0286 33.6824 10.7134 34.3095L10.383 34.9704ZM34.3936 29.3135C34.3943 29.5693 34.3443 29.8226 34.2464 30.0589C34.1486 30.2952 34.0048 30.5097 33.8234 30.6901C33.8067 30.7067 33.7909 30.7243 33.7761 30.7428L28.2419 37.6383H20.7036L26.0746 29.8468C26.3242 29.6157 26.6546 29.4918 26.9946 29.5018C27.3346 29.5119 27.6571 29.655 27.8926 29.9004C28.1282 30.1458 28.258 30.4739 28.2541 30.814C28.2502 31.1541 28.1129 31.4792 27.8718 31.7191C27.8478 31.7432 27.8257 31.7691 27.8057 31.7966L26.0816 34.1697C25.9843 34.3091 25.9457 34.481 25.9739 34.6487C26.0021 34.8163 26.095 34.9661 26.2325 35.066C26.37 35.1659 26.5412 35.2078 26.7094 35.1828C26.8775 35.1577 27.0291 35.0678 27.1315 34.9321L28.8278 32.5975C28.955 32.4647 29.0677 32.3188 29.164 32.1621L31.6613 28.9512V28.9504C31.7499 28.837 31.7979 28.6971 31.7979 28.5532V22.1077C31.7987 21.9269 31.8354 21.748 31.9058 21.5815C31.9762 21.4149 32.0789 21.264 32.2079 21.1373C32.3276 21.0175 32.47 20.9229 32.6269 20.8591C32.7837 20.7953 32.9517 20.7637 33.1211 20.766C33.4603 20.7742 33.7831 20.9143 34.0207 21.1567C34.2583 21.399 34.3921 21.7244 34.3936 22.0638V29.3135ZM33.3503 19.4814C32.6402 16.7211 30.9778 14.4278 28.5177 12.8257C26.6919 11.637 24.4926 10.8655 22.0592 10.5481C23.1265 9.70654 24.0427 8.59921 24.5261 7.96658C26.1397 5.85576 26.9198 4.02154 27.1658 2.76698C33.3472 5.25508 37.6383 10.6418 37.6383 16.8723C37.6328 19.3443 36.9602 21.7689 35.6915 23.8904V22.0638C35.6881 21.4205 35.4473 20.8011 35.0152 20.3245C34.5831 19.8478 33.9902 19.5476 33.3503 19.4814Z" fill="#979797"/>
<path d="M14.9256 22.7129C15.0977 22.7129 15.2628 22.6446 15.3845 22.5229C15.5062 22.4012 15.5745 22.2361 15.5745 22.064C15.5745 21.5477 15.3694 21.0525 15.0043 20.6874C14.6392 20.3223 14.144 20.1172 13.6277 20.1172C13.1114 20.1172 12.6162 20.3223 12.2511 20.6874C11.886 21.0525 11.6809 21.5477 11.6809 22.064C11.6809 22.2361 11.7493 22.4012 11.871 22.5229C11.9927 22.6446 12.1577 22.7129 12.3298 22.7129C12.502 22.7129 12.667 22.6446 12.7887 22.5229C12.9104 22.4012 12.9788 22.2361 12.9788 22.064C12.9788 21.8919 13.0471 21.7268 13.1688 21.6051C13.2905 21.4834 13.4556 21.4151 13.6277 21.4151C13.7998 21.4151 13.9649 21.4834 14.0866 21.6051C14.2083 21.7268 14.2767 21.8919 14.2767 22.064C14.2767 22.2361 14.345 22.4012 14.4667 22.5229C14.5884 22.6446 14.7535 22.7129 14.9256 22.7129Z" fill="#979797"/>
<path d="M25.3086 20.1172C24.7925 20.1178 24.2976 20.3231 23.9327 20.688C23.5677 21.053 23.3624 21.5478 23.3618 22.064C23.3618 22.2361 23.4302 22.4012 23.5519 22.5229C23.6736 22.6446 23.8386 22.7129 24.0108 22.7129C24.1829 22.7129 24.3479 22.6446 24.4696 22.5229C24.5913 22.4012 24.6597 22.2361 24.6597 22.064C24.6597 21.8919 24.7281 21.7268 24.8498 21.6051C24.9715 21.4834 25.1365 21.4151 25.3086 21.4151C25.4807 21.4151 25.6458 21.4834 25.7675 21.6051C25.8892 21.7268 25.9576 21.8919 25.9576 22.064C25.9576 22.2361 26.0259 22.4012 26.1476 22.5229C26.2693 22.6446 26.4344 22.7129 26.6065 22.7129C26.7786 22.7129 26.9437 22.6446 27.0654 22.5229C27.1871 22.4012 27.2554 22.2361 27.2554 22.064C27.2549 21.5478 27.0496 21.053 26.6846 20.688C26.3196 20.3231 25.8248 20.1178 25.3086 20.1172Z" fill="#979797"/>
<path d="M24.2706 26.6609C24.1129 26.5919 23.9343 26.5883 23.774 26.6511C23.6137 26.7138 23.4849 26.8376 23.4159 26.9952C23.4063 27.0173 22.4163 29.2022 19.4679 29.2022C16.5585 29.2022 15.5637 27.0918 15.5186 26.9923C15.4485 26.8358 15.3194 26.7135 15.1594 26.6519C14.9994 26.5903 14.8216 26.5945 14.6647 26.6636C14.5078 26.7327 14.3846 26.8611 14.3221 27.0207C14.2595 27.1803 14.2627 27.3582 14.3308 27.5155C14.3841 27.6374 15.6801 30.5001 19.4679 30.5001C23.2557 30.5001 24.5517 27.6374 24.605 27.5155C24.674 27.3578 24.6775 27.1792 24.6148 27.0189C24.5521 26.8587 24.4283 26.7299 24.2706 26.6609Z" fill="#979797"/>
<path d="M18.1699 25.3087H20.7657C20.9378 25.3087 21.1028 25.2403 21.2245 25.1186C21.3462 24.9969 21.4146 24.8318 21.4146 24.6597C21.4146 24.4876 21.3462 24.3226 21.2245 24.2009C21.1028 24.0792 20.9378 24.0108 20.7657 24.0108H18.8189V22.064C18.8189 21.8919 18.7505 21.7268 18.6288 21.6051C18.5071 21.4834 18.342 21.415 18.1699 21.415C17.9978 21.415 17.8328 21.4834 17.7111 21.6051C17.5894 21.7268 17.521 21.8919 17.521 22.064V24.6597C17.521 24.8318 17.5894 24.9969 17.7111 25.1186C17.8328 25.2403 17.9978 25.3087 18.1699 25.3087Z" fill="#979797"/>
</svg>
