<svg width="411" height="140" viewBox="0 0 411 140" fill="none" xmlns="http://www.w3.org/2000/svg">
<g clip-path="url(#clip0_1_1438)">
<rect width="413" height="140" fill="white"/>
<path d="M47.3125 120H42.5322V119.185L44.9004 116.602C45.2422 116.221 45.4847 115.903 45.6279 115.649C45.7744 115.392 45.8477 115.135 45.8477 114.878C45.8477 114.539 45.7516 114.266 45.5596 114.058C45.3708 113.849 45.1152 113.745 44.793 113.745C44.4089 113.745 44.111 113.862 43.8994 114.097C43.6878 114.331 43.582 114.652 43.582 115.059H42.3955C42.3955 114.626 42.4932 114.237 42.6885 113.892C42.887 113.543 43.1686 113.273 43.5332 113.081C43.901 112.889 44.3242 112.793 44.8027 112.793C45.4928 112.793 46.0365 112.967 46.4336 113.315C46.834 113.66 47.0342 114.139 47.0342 114.751C47.0342 115.106 46.9333 115.479 46.7314 115.869C46.5329 116.257 46.2057 116.698 45.75 117.192L44.0117 119.053H47.3125V120ZM52.6934 114.766C52.6934 115.114 52.6038 115.425 52.4248 115.698C52.2458 115.968 52.0016 116.182 51.6924 116.338C52.0635 116.51 52.3483 116.746 52.5469 117.046C52.7487 117.345 52.8496 117.684 52.8496 118.062C52.8496 118.687 52.638 119.183 52.2148 119.551C51.7917 119.915 51.2285 120.098 50.5254 120.098C49.819 120.098 49.2526 119.914 48.8262 119.546C48.403 119.178 48.1914 118.683 48.1914 118.062C48.1914 117.681 48.2923 117.339 48.4941 117.036C48.696 116.733 48.9792 116.501 49.3438 116.338C49.0378 116.182 48.7952 115.968 48.6162 115.698C48.4404 115.425 48.3525 115.114 48.3525 114.766C48.3525 114.16 48.5479 113.68 48.9385 113.325C49.3291 112.97 49.8564 112.793 50.5205 112.793C51.1878 112.793 51.7168 112.97 52.1074 113.325C52.498 113.68 52.6934 114.16 52.6934 114.766ZM51.6631 118.003C51.6631 117.651 51.5573 117.368 51.3457 117.153C51.1374 116.935 50.8607 116.826 50.5156 116.826C50.1706 116.826 49.8939 116.934 49.6855 117.148C49.4805 117.363 49.3779 117.648 49.3779 118.003C49.3779 118.351 49.4788 118.63 49.6807 118.838C49.8857 119.046 50.1673 119.15 50.5254 119.15C50.8835 119.15 51.1618 119.049 51.3604 118.848C51.5622 118.646 51.6631 118.364 51.6631 118.003ZM51.5117 114.81C51.5117 114.5 51.4222 114.246 51.2432 114.048C51.0641 113.846 50.8232 113.745 50.5205 113.745C50.2178 113.745 49.9785 113.841 49.8027 114.033C49.627 114.222 49.5391 114.481 49.5391 114.81C49.5391 115.135 49.627 115.394 49.8027 115.586C49.9818 115.778 50.2227 115.874 50.5254 115.874C50.8281 115.874 51.0674 115.778 51.2432 115.586C51.4222 115.394 51.5117 115.135 51.5117 114.81ZM57.8154 117.358V120H56.5801V112.891H59.2998C60.0941 112.891 60.724 113.097 61.1895 113.511C61.6582 113.924 61.8926 114.471 61.8926 115.151C61.8926 115.848 61.6631 116.39 61.2041 116.777C60.7484 117.165 60.1087 117.358 59.2852 117.358H57.8154ZM57.8154 116.367H59.2998C59.7393 116.367 60.0745 116.265 60.3057 116.06C60.5368 115.851 60.6523 115.552 60.6523 115.161C60.6523 114.777 60.5352 114.471 60.3008 114.243C60.0664 114.012 59.7441 113.893 59.334 113.887H57.8154V116.367ZM64.124 120H62.9375V112.5H64.124V120ZM68.5771 120C68.5251 119.899 68.4795 119.735 68.4404 119.507C68.0628 119.901 67.6006 120.098 67.0537 120.098C66.5231 120.098 66.0902 119.946 65.7549 119.644C65.4196 119.341 65.252 118.966 65.252 118.521C65.252 117.957 65.4603 117.526 65.877 117.227C66.2969 116.924 66.8958 116.772 67.6738 116.772H68.4014V116.426C68.4014 116.152 68.3249 115.934 68.1719 115.771C68.0189 115.605 67.7861 115.522 67.4736 115.522C67.2035 115.522 66.9821 115.591 66.8096 115.728C66.637 115.861 66.5508 116.032 66.5508 116.24H65.3643C65.3643 115.951 65.4603 115.68 65.6523 115.43C65.8444 115.176 66.1048 114.977 66.4336 114.834C66.7656 114.691 67.1351 114.619 67.542 114.619C68.1605 114.619 68.6536 114.775 69.0215 115.088C69.3893 115.397 69.5781 115.833 69.5879 116.396V118.779C69.5879 119.255 69.6546 119.634 69.7881 119.917V120H68.5771ZM67.2734 119.146C67.5078 119.146 67.7275 119.089 67.9326 118.975C68.141 118.861 68.2972 118.708 68.4014 118.516V117.52H67.7617C67.3223 117.52 66.9919 117.596 66.7705 117.749C66.5492 117.902 66.4385 118.118 66.4385 118.398C66.4385 118.626 66.5133 118.809 66.6631 118.945C66.8161 119.079 67.0195 119.146 67.2734 119.146ZM73.001 119.15C73.2972 119.15 73.543 119.064 73.7383 118.892C73.9336 118.719 74.0378 118.506 74.0508 118.252H75.1689C75.1559 118.581 75.0534 118.888 74.8613 119.175C74.6693 119.458 74.4089 119.683 74.0801 119.849C73.7513 120.015 73.3965 120.098 73.0156 120.098C72.2767 120.098 71.6908 119.858 71.2578 119.38C70.8249 118.901 70.6084 118.241 70.6084 117.397V117.275C70.6084 116.471 70.8232 115.828 71.2529 115.347C71.6826 114.862 72.2686 114.619 73.0107 114.619C73.639 114.619 74.1501 114.803 74.5439 115.171C74.9411 115.535 75.1494 116.016 75.1689 116.611H74.0508C74.0378 116.309 73.9336 116.06 73.7383 115.864C73.5462 115.669 73.3005 115.571 73.001 115.571C72.6169 115.571 72.3206 115.711 72.1123 115.991C71.904 116.268 71.7982 116.689 71.7949 117.256V117.446C71.7949 118.019 71.8975 118.447 72.1025 118.73C72.3109 119.01 72.6104 119.15 73.001 119.15ZM78.3916 120.098C77.6396 120.098 77.0293 119.862 76.5605 119.39C76.0951 118.914 75.8623 118.283 75.8623 117.495V117.349C75.8623 116.821 75.9632 116.351 76.165 115.938C76.3701 115.521 76.6566 115.197 77.0244 114.966C77.3923 114.735 77.8024 114.619 78.2549 114.619C78.9743 114.619 79.5293 114.849 79.9199 115.308C80.3138 115.767 80.5107 116.416 80.5107 117.256V117.734H77.0586C77.0944 118.171 77.2393 118.516 77.4932 118.77C77.7503 119.023 78.0726 119.15 78.46 119.15C79.0036 119.15 79.4463 118.931 79.7881 118.491L80.4277 119.102C80.2161 119.417 79.9329 119.663 79.5781 119.839C79.2266 120.011 78.8311 120.098 78.3916 120.098ZM78.25 115.571C77.9245 115.571 77.6608 115.685 77.459 115.913C77.2604 116.141 77.1335 116.458 77.0781 116.865H79.3389V116.777C79.3128 116.38 79.207 116.081 79.0215 115.879C78.8359 115.674 78.5788 115.571 78.25 115.571Z" fill="#474747"/>
<path d="M151.85 116.475L152.235 112.891H156.054V113.916H153.222L153.026 115.615C153.355 115.426 153.726 115.332 154.14 115.332C154.817 115.332 155.342 115.549 155.717 115.981C156.094 116.414 156.283 116.997 156.283 117.729C156.283 118.452 156.075 119.028 155.658 119.458C155.242 119.884 154.67 120.098 153.944 120.098C153.293 120.098 152.753 119.914 152.323 119.546C151.897 119.175 151.666 118.687 151.63 118.081H152.777C152.823 118.426 152.947 118.691 153.148 118.877C153.35 119.059 153.614 119.15 153.939 119.15C154.304 119.15 154.587 119.02 154.789 118.76C154.994 118.499 155.097 118.145 155.097 117.695C155.097 117.262 154.984 116.921 154.76 116.67C154.535 116.416 154.226 116.289 153.832 116.289C153.617 116.289 153.435 116.318 153.285 116.377C153.135 116.432 152.973 116.543 152.797 116.709L151.85 116.475ZM164.408 117.412C164.408 118.229 164.223 118.882 163.852 119.37C163.48 119.855 162.982 120.098 162.357 120.098C161.778 120.098 161.314 119.907 160.966 119.526V122.031H159.779V114.717H160.873L160.922 115.254C161.27 114.831 161.744 114.619 162.343 114.619C162.987 114.619 163.492 114.86 163.856 115.342C164.224 115.82 164.408 116.486 164.408 117.339V117.412ZM163.227 117.31C163.227 116.782 163.121 116.364 162.909 116.055C162.701 115.745 162.401 115.591 162.011 115.591C161.526 115.591 161.177 115.791 160.966 116.191V118.535C161.181 118.945 161.532 119.15 162.021 119.15C162.398 119.15 162.693 118.999 162.904 118.696C163.119 118.39 163.227 117.928 163.227 117.31ZM166.679 120H165.492V112.5H166.679V120ZM171.132 120C171.08 119.899 171.034 119.735 170.995 119.507C170.618 119.901 170.155 120.098 169.608 120.098C169.078 120.098 168.645 119.946 168.31 119.644C167.974 119.341 167.807 118.966 167.807 118.521C167.807 117.957 168.015 117.526 168.432 117.227C168.852 116.924 169.451 116.772 170.229 116.772H170.956V116.426C170.956 116.152 170.88 115.934 170.727 115.771C170.574 115.605 170.341 115.522 170.028 115.522C169.758 115.522 169.537 115.591 169.364 115.728C169.192 115.861 169.105 116.032 169.105 116.24H167.919C167.919 115.951 168.015 115.68 168.207 115.43C168.399 115.176 168.66 114.977 168.988 114.834C169.32 114.691 169.69 114.619 170.097 114.619C170.715 114.619 171.208 114.775 171.576 115.088C171.944 115.397 172.133 115.833 172.143 116.396V118.779C172.143 119.255 172.209 119.634 172.343 119.917V120H171.132ZM169.828 119.146C170.062 119.146 170.282 119.089 170.487 118.975C170.696 118.861 170.852 118.708 170.956 118.516V117.52H170.316C169.877 117.52 169.547 117.596 169.325 117.749C169.104 117.902 168.993 118.118 168.993 118.398C168.993 118.626 169.068 118.809 169.218 118.945C169.371 119.079 169.574 119.146 169.828 119.146ZM175.556 119.15C175.852 119.15 176.098 119.064 176.293 118.892C176.488 118.719 176.592 118.506 176.605 118.252H177.724C177.711 118.581 177.608 118.888 177.416 119.175C177.224 119.458 176.964 119.683 176.635 119.849C176.306 120.015 175.951 120.098 175.57 120.098C174.831 120.098 174.245 119.858 173.812 119.38C173.38 118.901 173.163 118.241 173.163 117.397V117.275C173.163 116.471 173.378 115.828 173.808 115.347C174.237 114.862 174.823 114.619 175.565 114.619C176.194 114.619 176.705 114.803 177.099 115.171C177.496 115.535 177.704 116.016 177.724 116.611H176.605C176.592 116.309 176.488 116.06 176.293 115.864C176.101 115.669 175.855 115.571 175.556 115.571C175.172 115.571 174.875 115.711 174.667 115.991C174.459 116.268 174.353 116.689 174.35 117.256V117.446C174.35 118.019 174.452 118.447 174.657 118.73C174.866 119.01 175.165 119.15 175.556 119.15ZM180.946 120.098C180.194 120.098 179.584 119.862 179.115 119.39C178.65 118.914 178.417 118.283 178.417 117.495V117.349C178.417 116.821 178.518 116.351 178.72 115.938C178.925 115.521 179.211 115.197 179.579 114.966C179.947 114.735 180.357 114.619 180.81 114.619C181.529 114.619 182.084 114.849 182.475 115.308C182.868 115.767 183.065 116.416 183.065 117.256V117.734H179.613C179.649 118.171 179.794 118.516 180.048 118.77C180.305 119.023 180.627 119.15 181.015 119.15C181.558 119.15 182.001 118.931 182.343 118.491L182.982 119.102C182.771 119.417 182.488 119.663 182.133 119.839C181.781 120.011 181.386 120.098 180.946 120.098ZM180.805 115.571C180.479 115.571 180.215 115.685 180.014 115.913C179.815 116.141 179.688 116.458 179.633 116.865H181.894V116.777C181.868 116.38 181.762 116.081 181.576 115.879C181.391 115.674 181.133 115.571 180.805 115.571Z" fill="#474747"/>
<path d="M272.546 117.466H273.43V118.418H272.546V120H271.359V118.418H268.288L268.254 117.695L271.32 112.891H272.546V117.466ZM269.499 117.466H271.359V114.497L271.271 114.653L269.499 117.466ZM281.408 117.412C281.408 118.229 281.223 118.882 280.852 119.37C280.48 119.855 279.982 120.098 279.357 120.098C278.778 120.098 278.314 119.907 277.966 119.526V122.031H276.779V114.717H277.873L277.922 115.254C278.27 114.831 278.744 114.619 279.343 114.619C279.987 114.619 280.492 114.86 280.856 115.342C281.224 115.82 281.408 116.486 281.408 117.339V117.412ZM280.227 117.31C280.227 116.782 280.121 116.364 279.909 116.055C279.701 115.745 279.401 115.591 279.011 115.591C278.526 115.591 278.177 115.791 277.966 116.191V118.535C278.181 118.945 278.532 119.15 279.021 119.15C279.398 119.15 279.693 118.999 279.904 118.696C280.119 118.39 280.227 117.928 280.227 117.31ZM283.679 120H282.492V112.5H283.679V120ZM288.132 120C288.08 119.899 288.034 119.735 287.995 119.507C287.618 119.901 287.155 120.098 286.608 120.098C286.078 120.098 285.645 119.946 285.31 119.644C284.974 119.341 284.807 118.966 284.807 118.521C284.807 117.957 285.015 117.526 285.432 117.227C285.852 116.924 286.451 116.772 287.229 116.772H287.956V116.426C287.956 116.152 287.88 115.934 287.727 115.771C287.574 115.605 287.341 115.522 287.028 115.522C286.758 115.522 286.537 115.591 286.364 115.728C286.192 115.861 286.105 116.032 286.105 116.24H284.919C284.919 115.951 285.015 115.68 285.207 115.43C285.399 115.176 285.66 114.977 285.988 114.834C286.32 114.691 286.69 114.619 287.097 114.619C287.715 114.619 288.208 114.775 288.576 115.088C288.944 115.397 289.133 115.833 289.143 116.396V118.779C289.143 119.255 289.209 119.634 289.343 119.917V120H288.132ZM286.828 119.146C287.062 119.146 287.282 119.089 287.487 118.975C287.696 118.861 287.852 118.708 287.956 118.516V117.52H287.316C286.877 117.52 286.547 117.596 286.325 117.749C286.104 117.902 285.993 118.118 285.993 118.398C285.993 118.626 286.068 118.809 286.218 118.945C286.371 119.079 286.574 119.146 286.828 119.146ZM292.556 119.15C292.852 119.15 293.098 119.064 293.293 118.892C293.488 118.719 293.592 118.506 293.605 118.252H294.724C294.711 118.581 294.608 118.888 294.416 119.175C294.224 119.458 293.964 119.683 293.635 119.849C293.306 120.015 292.951 120.098 292.57 120.098C291.831 120.098 291.245 119.858 290.812 119.38C290.38 118.901 290.163 118.241 290.163 117.397V117.275C290.163 116.471 290.378 115.828 290.808 115.347C291.237 114.862 291.823 114.619 292.565 114.619C293.194 114.619 293.705 114.803 294.099 115.171C294.496 115.535 294.704 116.016 294.724 116.611H293.605C293.592 116.309 293.488 116.06 293.293 115.864C293.101 115.669 292.855 115.571 292.556 115.571C292.172 115.571 291.875 115.711 291.667 115.991C291.459 116.268 291.353 116.689 291.35 117.256V117.446C291.35 118.019 291.452 118.447 291.657 118.73C291.866 119.01 292.165 119.15 292.556 119.15ZM297.946 120.098C297.194 120.098 296.584 119.862 296.115 119.39C295.65 118.914 295.417 118.283 295.417 117.495V117.349C295.417 116.821 295.518 116.351 295.72 115.938C295.925 115.521 296.211 115.197 296.579 114.966C296.947 114.735 297.357 114.619 297.81 114.619C298.529 114.619 299.084 114.849 299.475 115.308C299.868 115.767 300.065 116.416 300.065 117.256V117.734H296.613C296.649 118.171 296.794 118.516 297.048 118.77C297.305 119.023 297.627 119.15 298.015 119.15C298.558 119.15 299.001 118.931 299.343 118.491L299.982 119.102C299.771 119.417 299.488 119.663 299.133 119.839C298.781 120.011 298.386 120.098 297.946 120.098ZM297.805 115.571C297.479 115.571 297.215 115.685 297.014 115.913C296.815 116.141 296.688 116.458 296.633 116.865H298.894V116.777C298.868 116.38 298.762 116.081 298.576 115.879C298.391 115.674 298.133 115.571 297.805 115.571Z" fill="#474747"/>
<path d="M377.745 120H376.563V114.292L374.82 114.888V113.887L377.594 112.866H377.745V120ZM380.533 116.475L380.919 112.891H384.737V113.916H381.905L381.71 115.615C382.039 115.426 382.41 115.332 382.823 115.332C383.5 115.332 384.026 115.549 384.4 115.981C384.778 116.414 384.967 116.997 384.967 117.729C384.967 118.452 384.758 119.028 384.342 119.458C383.925 119.884 383.354 120.098 382.628 120.098C381.977 120.098 381.437 119.914 381.007 119.546C380.58 119.175 380.349 118.687 380.313 118.081H381.461C381.507 118.426 381.63 118.691 381.832 118.877C382.034 119.059 382.298 119.15 382.623 119.15C382.988 119.15 383.271 119.02 383.473 118.76C383.678 118.499 383.78 118.145 383.78 117.695C383.78 117.262 383.668 116.921 383.443 116.67C383.219 116.416 382.91 116.289 382.516 116.289C382.301 116.289 382.118 116.318 381.969 116.377C381.819 116.432 381.656 116.543 381.48 116.709L380.533 116.475ZM393.092 117.412C393.092 118.229 392.906 118.882 392.535 119.37C392.164 119.855 391.666 120.098 391.041 120.098C390.462 120.098 389.998 119.907 389.649 119.526V122.031H388.463V114.717H389.557L389.605 115.254C389.954 114.831 390.427 114.619 391.026 114.619C391.671 114.619 392.175 114.86 392.54 115.342C392.908 115.82 393.092 116.486 393.092 117.339V117.412ZM391.91 117.31C391.91 116.782 391.804 116.364 391.593 116.055C391.384 115.745 391.085 115.591 390.694 115.591C390.209 115.591 389.861 115.791 389.649 116.191V118.535C389.864 118.945 390.216 119.15 390.704 119.15C391.082 119.15 391.376 118.999 391.588 118.696C391.803 118.39 391.91 117.928 391.91 117.31ZM395.362 120H394.176V112.5H395.362V120ZM399.815 120C399.763 119.899 399.718 119.735 399.679 119.507C399.301 119.901 398.839 120.098 398.292 120.098C397.761 120.098 397.328 119.946 396.993 119.644C396.658 119.341 396.49 118.966 396.49 118.521C396.49 117.957 396.699 117.526 397.115 117.227C397.535 116.924 398.134 116.772 398.912 116.772H399.64V116.426C399.64 116.152 399.563 115.934 399.41 115.771C399.257 115.605 399.024 115.522 398.712 115.522C398.442 115.522 398.22 115.591 398.048 115.728C397.875 115.861 397.789 116.032 397.789 116.24H396.603C396.603 115.951 396.699 115.68 396.891 115.43C397.083 115.176 397.343 114.977 397.672 114.834C398.004 114.691 398.373 114.619 398.78 114.619C399.399 114.619 399.892 114.775 400.26 115.088C400.628 115.397 400.816 115.833 400.826 116.396V118.779C400.826 119.255 400.893 119.634 401.026 119.917V120H399.815ZM398.512 119.146C398.746 119.146 398.966 119.089 399.171 118.975C399.379 118.861 399.535 118.708 399.64 118.516V117.52H399C398.561 117.52 398.23 117.596 398.009 117.749C397.787 117.902 397.677 118.118 397.677 118.398C397.677 118.626 397.752 118.809 397.901 118.945C398.054 119.079 398.258 119.146 398.512 119.146ZM404.239 119.15C404.535 119.15 404.781 119.064 404.977 118.892C405.172 118.719 405.276 118.506 405.289 118.252H406.407C406.394 118.581 406.292 118.888 406.1 119.175C405.908 119.458 405.647 119.683 405.318 119.849C404.99 120.015 404.635 120.098 404.254 120.098C403.515 120.098 402.929 119.858 402.496 119.38C402.063 118.901 401.847 118.241 401.847 117.397V117.275C401.847 116.471 402.062 115.828 402.491 115.347C402.921 114.862 403.507 114.619 404.249 114.619C404.877 114.619 405.388 114.803 405.782 115.171C406.179 115.535 406.388 116.016 406.407 116.611H405.289C405.276 116.309 405.172 116.06 404.977 115.864C404.785 115.669 404.539 115.571 404.239 115.571C403.855 115.571 403.559 115.711 403.351 115.991C403.142 116.268 403.036 116.689 403.033 117.256V117.446C403.033 118.019 403.136 118.447 403.341 118.73C403.549 119.01 403.849 119.15 404.239 119.15ZM409.63 120.098C408.878 120.098 408.268 119.862 407.799 119.39C407.333 118.914 407.101 118.283 407.101 117.495V117.349C407.101 116.821 407.201 116.351 407.403 115.938C407.608 115.521 407.895 115.197 408.263 114.966C408.631 114.735 409.041 114.619 409.493 114.619C410.213 114.619 410.768 114.849 411.158 115.308C411.552 115.767 411.749 116.416 411.749 117.256V117.734H408.297C408.333 118.171 408.478 118.516 408.731 118.77C408.989 119.023 409.311 119.15 409.698 119.15C410.242 119.15 410.685 118.931 411.026 118.491L411.666 119.102C411.454 119.417 411.171 119.663 410.816 119.839C410.465 120.011 410.069 120.098 409.63 120.098ZM409.488 115.571C409.163 115.571 408.899 115.685 408.697 115.913C408.499 116.141 408.372 116.458 408.316 116.865H410.577V116.777C410.551 116.38 410.445 116.081 410.26 115.879C410.074 115.674 409.817 115.571 409.488 115.571Z" fill="#474747"/>
<path d="M43.2378 100V89.3359H46.7241C47.8813 89.3359 48.7505 89.5752 49.3315 90.0537C49.9175 90.5322 50.2104 91.2402 50.2104 92.1777C50.2104 92.6758 50.0688 93.1177 49.7856 93.5034C49.5024 93.8843 49.1167 94.1797 48.6284 94.3896C49.2046 94.5508 49.6587 94.8584 49.9907 95.3125C50.3276 95.7617 50.4961 96.2988 50.4961 96.9238C50.4961 97.8809 50.186 98.6328 49.5659 99.1797C48.9458 99.7266 48.0693 100 46.9365 100H43.2378ZM44.644 95.0122V98.8501H46.9658C47.6201 98.8501 48.1353 98.6816 48.5112 98.3447C48.8921 98.0029 49.0825 97.5342 49.0825 96.9385C49.0825 95.6543 48.3843 95.0122 46.9878 95.0122H44.644ZM44.644 93.8843H46.7681C47.3833 93.8843 47.874 93.7305 48.2402 93.4229C48.6113 93.1152 48.7969 92.6978 48.7969 92.1704C48.7969 91.5845 48.626 91.1597 48.2842 90.896C47.9424 90.6274 47.4224 90.4932 46.7241 90.4932H44.644V93.8843ZM55.6597 100.146C54.5854 100.146 53.7114 99.7949 53.0376 99.0918C52.3638 98.3838 52.0269 97.439 52.0269 96.2573V96.0083C52.0269 95.2222 52.1758 94.5215 52.4736 93.9062C52.7764 93.2861 53.1963 92.8027 53.7334 92.4561C54.2754 92.1045 54.8613 91.9287 55.4912 91.9287C56.5215 91.9287 57.3223 92.2681 57.8936 92.9468C58.4648 93.6255 58.7505 94.5972 58.7505 95.8618V96.4258H53.3818C53.4014 97.207 53.6284 97.8394 54.063 98.3228C54.5024 98.8013 55.0591 99.0405 55.7329 99.0405C56.2114 99.0405 56.6167 98.9429 56.9487 98.7476C57.2808 98.5522 57.5713 98.2935 57.8203 97.9712L58.6479 98.6157C57.9839 99.6362 56.9878 100.146 55.6597 100.146ZM55.4912 93.042C54.9443 93.042 54.4854 93.2422 54.1143 93.6426C53.7432 94.0381 53.5137 94.5947 53.4258 95.3125H57.3955V95.21C57.3564 94.5215 57.1709 93.9893 56.8389 93.6133C56.5068 93.2324 56.0576 93.042 55.4912 93.042ZM65.2178 100C65.1396 99.8438 65.0762 99.5654 65.0273 99.165C64.3975 99.8193 63.6455 100.146 62.7715 100.146C61.9902 100.146 61.3481 99.9268 60.8452 99.4873C60.3472 99.043 60.0981 98.4814 60.0981 97.8027C60.0981 96.9775 60.4106 96.3379 61.0356 95.8838C61.6655 95.4248 62.5493 95.1953 63.687 95.1953H65.0054V94.5728C65.0054 94.0991 64.8638 93.7231 64.5806 93.4448C64.2974 93.1616 63.8799 93.02 63.3281 93.02C62.8447 93.02 62.4395 93.1421 62.1123 93.3862C61.7852 93.6304 61.6216 93.9258 61.6216 94.2725H60.2593C60.2593 93.877 60.3984 93.4961 60.6768 93.1299C60.96 92.7588 61.3408 92.4658 61.8193 92.251C62.3027 92.0361 62.8325 91.9287 63.4087 91.9287C64.3218 91.9287 65.0371 92.1582 65.5547 92.6172C66.0723 93.0713 66.3408 93.6987 66.3604 94.4995V98.147C66.3604 98.8745 66.4531 99.4531 66.6387 99.8828V100H65.2178ZM62.9692 98.9673C63.394 98.9673 63.7969 98.8574 64.1777 98.6377C64.5586 98.418 64.8345 98.1323 65.0054 97.7808V96.1548H63.9434C62.2832 96.1548 61.4531 96.6406 61.4531 97.6123C61.4531 98.0371 61.5947 98.3691 61.8779 98.6084C62.1611 98.8477 62.5249 98.9673 62.9692 98.9673ZM73.377 99.2163C72.8496 99.8364 72.0757 100.146 71.0552 100.146C70.2104 100.146 69.5659 99.9023 69.1216 99.4141C68.6821 98.9209 68.46 98.1934 68.4551 97.2314V92.0752H69.8101V97.1948C69.8101 98.396 70.2983 98.9966 71.2749 98.9966C72.3101 98.9966 72.9985 98.6108 73.3403 97.8394V92.0752H74.6953V100H73.4062L73.377 99.2163ZM78.5991 90.1562V92.0752H80.0786V93.1226H78.5991V98.0371C78.5991 98.3545 78.665 98.5938 78.7969 98.7549C78.9287 98.9111 79.1533 98.9893 79.4707 98.9893C79.627 98.9893 79.8418 98.96 80.1152 98.9014V100C79.7588 100.098 79.4121 100.146 79.0752 100.146C78.4697 100.146 78.0132 99.9634 77.7056 99.5972C77.3979 99.231 77.2441 98.7109 77.2441 98.0371V93.1226H75.8013V92.0752H77.2441V90.1562H78.5991ZM84.2607 98.0151L86.1064 92.0752H87.5566L84.3706 101.223C83.8774 102.542 83.0938 103.201 82.0195 103.201L81.7632 103.179L81.2578 103.083V101.985L81.624 102.014C82.083 102.014 82.4395 101.921 82.6934 101.736C82.9521 101.55 83.1646 101.211 83.3306 100.718L83.6309 99.9121L80.8037 92.0752H82.2832L84.2607 98.0151Z" fill="#1D1B44"/>
<path d="M145.119 95.2905H140.644V100H139.238V89.3359H145.844V90.4932H140.644V94.1406H145.119V95.2905ZM151.96 100C151.882 99.8438 151.818 99.5654 151.77 99.165C151.14 99.8193 150.388 100.146 149.514 100.146C148.732 100.146 148.09 99.9268 147.587 99.4873C147.089 99.043 146.84 98.4814 146.84 97.8027C146.84 96.9775 147.153 96.3379 147.778 95.8838C148.408 95.4248 149.292 95.1953 150.429 95.1953H151.748V94.5728C151.748 94.0991 151.606 93.7231 151.323 93.4448C151.04 93.1616 150.622 93.02 150.07 93.02C149.587 93.02 149.182 93.1421 148.854 93.3862C148.527 93.6304 148.364 93.9258 148.364 94.2725H147.001C147.001 93.877 147.141 93.4961 147.419 93.1299C147.702 92.7588 148.083 92.4658 148.562 92.251C149.045 92.0361 149.575 91.9287 150.151 91.9287C151.064 91.9287 151.779 92.1582 152.297 92.6172C152.814 93.0713 153.083 93.6987 153.103 94.4995V98.147C153.103 98.8745 153.195 99.4531 153.381 99.8828V100H151.96ZM149.711 98.9673C150.136 98.9673 150.539 98.8574 150.92 98.6377C151.301 98.418 151.577 98.1323 151.748 97.7808V96.1548H150.686C149.025 96.1548 148.195 96.6406 148.195 97.6123C148.195 98.0371 148.337 98.3691 148.62 98.6084C148.903 98.8477 149.267 98.9673 149.711 98.9673ZM158.405 99.0405C158.889 99.0405 159.311 98.894 159.672 98.6011C160.034 98.3081 160.234 97.9419 160.273 97.5024H161.555C161.53 97.9565 161.374 98.3887 161.086 98.7988C160.798 99.209 160.412 99.5361 159.929 99.7803C159.45 100.024 158.942 100.146 158.405 100.146C157.326 100.146 156.467 99.7876 155.827 99.0698C155.192 98.3472 154.875 97.3608 154.875 96.1108V95.8838C154.875 95.1123 155.017 94.4263 155.3 93.8257C155.583 93.2251 155.988 92.7588 156.516 92.4268C157.048 92.0947 157.675 91.9287 158.398 91.9287C159.287 91.9287 160.024 92.1948 160.61 92.7271C161.201 93.2593 161.516 93.9502 161.555 94.7998H160.273C160.234 94.2871 160.039 93.8672 159.687 93.54C159.34 93.208 158.911 93.042 158.398 93.042C157.709 93.042 157.175 93.291 156.794 93.7891C156.418 94.2822 156.23 94.9976 156.23 95.9351V96.1914C156.23 97.1045 156.418 97.8076 156.794 98.3008C157.17 98.7939 157.707 99.0405 158.405 99.0405ZM166.367 100.146C165.292 100.146 164.418 99.7949 163.745 99.0918C163.071 98.3838 162.734 97.439 162.734 96.2573V96.0083C162.734 95.2222 162.883 94.5215 163.181 93.9062C163.483 93.2861 163.903 92.8027 164.44 92.4561C164.982 92.1045 165.568 91.9287 166.198 91.9287C167.229 91.9287 168.029 92.2681 168.601 92.9468C169.172 93.6255 169.458 94.5972 169.458 95.8618V96.4258H164.089C164.108 97.207 164.335 97.8394 164.77 98.3228C165.209 98.8013 165.766 99.0405 166.44 99.0405C166.918 99.0405 167.324 98.9429 167.656 98.7476C167.988 98.5522 168.278 98.2935 168.527 97.9712L169.355 98.6157C168.691 99.6362 167.695 100.146 166.367 100.146ZM166.198 93.042C165.651 93.042 165.192 93.2422 164.821 93.6426C164.45 94.0381 164.221 94.5947 164.133 95.3125H168.103V95.21C168.063 94.5215 167.878 93.9893 167.546 93.6133C167.214 93.2324 166.765 93.042 166.198 93.042ZM181.77 98.1323L183.293 92.0752H184.648L182.341 100H181.242L179.316 93.9941L177.441 100H176.342L174.042 92.0752H175.39L176.95 98.0078L178.796 92.0752H179.887L181.77 98.1323ZM190.925 100C190.847 99.8438 190.783 99.5654 190.734 99.165C190.104 99.8193 189.353 100.146 188.479 100.146C187.697 100.146 187.055 99.9268 186.552 99.4873C186.054 99.043 185.805 98.4814 185.805 97.8027C185.805 96.9775 186.118 96.3379 186.743 95.8838C187.373 95.4248 188.256 95.1953 189.394 95.1953H190.712V94.5728C190.712 94.0991 190.571 93.7231 190.288 93.4448C190.004 93.1616 189.587 93.02 189.035 93.02C188.552 93.02 188.146 93.1421 187.819 93.3862C187.492 93.6304 187.329 93.9258 187.329 94.2725H185.966C185.966 93.877 186.105 93.4961 186.384 93.1299C186.667 92.7588 187.048 92.4658 187.526 92.251C188.01 92.0361 188.54 91.9287 189.116 91.9287C190.029 91.9287 190.744 92.1582 191.262 92.6172C191.779 93.0713 192.048 93.6987 192.067 94.4995V98.147C192.067 98.8745 192.16 99.4531 192.346 99.8828V100H190.925ZM188.676 98.9673C189.101 98.9673 189.504 98.8574 189.885 98.6377C190.266 98.418 190.542 98.1323 190.712 97.7808V96.1548H189.65C187.99 96.1548 187.16 96.6406 187.16 97.6123C187.16 98.0371 187.302 98.3691 187.585 98.6084C187.868 98.8477 188.232 98.9673 188.676 98.9673ZM198.806 97.8979C198.806 97.5317 198.667 97.2485 198.388 97.0483C198.115 96.8433 197.634 96.6675 196.945 96.521C196.262 96.3745 195.717 96.1987 195.312 95.9937C194.912 95.7886 194.614 95.5444 194.418 95.2612C194.228 94.978 194.133 94.6411 194.133 94.2505C194.133 93.6011 194.406 93.0518 194.953 92.6025C195.505 92.1533 196.208 91.9287 197.062 91.9287C197.961 91.9287 198.688 92.1606 199.245 92.6245C199.807 93.0884 200.087 93.6816 200.087 94.4043H198.725C198.725 94.0332 198.566 93.7134 198.249 93.4448C197.937 93.1763 197.541 93.042 197.062 93.042C196.569 93.042 196.184 93.1494 195.905 93.3643C195.627 93.5791 195.488 93.8599 195.488 94.2065C195.488 94.5337 195.617 94.7803 195.876 94.9463C196.135 95.1123 196.601 95.271 197.275 95.4224C197.954 95.5737 198.503 95.7544 198.923 95.9644C199.343 96.1743 199.653 96.4282 199.853 96.7261C200.058 97.019 200.161 97.3779 200.161 97.8027C200.161 98.5107 199.877 99.0796 199.311 99.5093C198.745 99.9341 198.01 100.146 197.106 100.146C196.472 100.146 195.91 100.034 195.422 99.8096C194.934 99.585 194.55 99.2725 194.272 98.8721C193.999 98.4668 193.862 98.0298 193.862 97.561H195.217C195.241 98.0151 195.422 98.3765 195.759 98.645C196.101 98.9087 196.55 99.0405 197.106 99.0405C197.619 99.0405 198.029 98.938 198.337 98.7329C198.649 98.5229 198.806 98.2446 198.806 97.8979ZM203.281 93.0347C203.881 92.2974 204.663 91.9287 205.625 91.9287C207.299 91.9287 208.144 92.8735 208.159 94.7632V100H206.804V94.7559C206.799 94.1846 206.667 93.7622 206.408 93.4888C206.154 93.2153 205.756 93.0786 205.214 93.0786C204.775 93.0786 204.389 93.1958 204.057 93.4302C203.725 93.6646 203.466 93.9722 203.281 94.353V100H201.926V88.75H203.281V93.0347Z" fill="#1D1B44"/>
<path d="M244.119 95.2905H239.644V100H238.238V89.3359H244.844V90.4932H239.644V94.1406H244.119V95.2905ZM250.96 100C250.882 99.8438 250.818 99.5654 250.77 99.165C250.14 99.8193 249.388 100.146 248.514 100.146C247.732 100.146 247.09 99.9268 246.587 99.4873C246.089 99.043 245.84 98.4814 245.84 97.8027C245.84 96.9775 246.153 96.3379 246.778 95.8838C247.408 95.4248 248.292 95.1953 249.429 95.1953H250.748V94.5728C250.748 94.0991 250.606 93.7231 250.323 93.4448C250.04 93.1616 249.622 93.02 249.07 93.02C248.587 93.02 248.182 93.1421 247.854 93.3862C247.527 93.6304 247.364 93.9258 247.364 94.2725H246.001C246.001 93.877 246.141 93.4961 246.419 93.1299C246.702 92.7588 247.083 92.4658 247.562 92.251C248.045 92.0361 248.575 91.9287 249.151 91.9287C250.064 91.9287 250.779 92.1582 251.297 92.6172C251.814 93.0713 252.083 93.6987 252.103 94.4995V98.147C252.103 98.8745 252.195 99.4531 252.381 99.8828V100H250.96ZM248.711 98.9673C249.136 98.9673 249.539 98.8574 249.92 98.6377C250.301 98.418 250.577 98.1323 250.748 97.7808V96.1548H249.686C248.025 96.1548 247.195 96.6406 247.195 97.6123C247.195 98.0371 247.337 98.3691 247.62 98.6084C247.903 98.8477 248.267 98.9673 248.711 98.9673ZM257.405 99.0405C257.889 99.0405 258.311 98.894 258.672 98.6011C259.034 98.3081 259.234 97.9419 259.273 97.5024H260.555C260.53 97.9565 260.374 98.3887 260.086 98.7988C259.798 99.209 259.412 99.5361 258.929 99.7803C258.45 100.024 257.942 100.146 257.405 100.146C256.326 100.146 255.467 99.7876 254.827 99.0698C254.192 98.3472 253.875 97.3608 253.875 96.1108V95.8838C253.875 95.1123 254.017 94.4263 254.3 93.8257C254.583 93.2251 254.988 92.7588 255.516 92.4268C256.048 92.0947 256.675 91.9287 257.398 91.9287C258.287 91.9287 259.024 92.1948 259.61 92.7271C260.201 93.2593 260.516 93.9502 260.555 94.7998H259.273C259.234 94.2871 259.039 93.8672 258.687 93.54C258.34 93.208 257.911 93.042 257.398 93.042C256.709 93.042 256.175 93.291 255.794 93.7891C255.418 94.2822 255.23 94.9976 255.23 95.9351V96.1914C255.23 97.1045 255.418 97.8076 255.794 98.3008C256.17 98.7939 256.707 99.0405 257.405 99.0405ZM265.367 100.146C264.292 100.146 263.418 99.7949 262.745 99.0918C262.071 98.3838 261.734 97.439 261.734 96.2573V96.0083C261.734 95.2222 261.883 94.5215 262.181 93.9062C262.483 93.2861 262.903 92.8027 263.44 92.4561C263.982 92.1045 264.568 91.9287 265.198 91.9287C266.229 91.9287 267.029 92.2681 267.601 92.9468C268.172 93.6255 268.458 94.5972 268.458 95.8618V96.4258H263.089C263.108 97.207 263.335 97.8394 263.77 98.3228C264.209 98.8013 264.766 99.0405 265.44 99.0405C265.918 99.0405 266.324 98.9429 266.656 98.7476C266.988 98.5522 267.278 98.2935 267.527 97.9712L268.355 98.6157C267.691 99.6362 266.695 100.146 265.367 100.146ZM265.198 93.042C264.651 93.042 264.192 93.2422 263.821 93.6426C263.45 94.0381 263.221 94.5947 263.133 95.3125H267.103V95.21C267.063 94.5215 266.878 93.9893 266.546 93.6133C266.214 93.2324 265.765 93.042 265.198 93.042ZM275.782 89.3359L279.268 98.0371L282.754 89.3359H284.578V100H283.172V95.8472L283.304 91.3647L279.803 100H278.726L275.232 91.3867L275.372 95.8472V100H273.965V89.3359H275.782ZM291.741 100C291.663 99.8438 291.6 99.5654 291.551 99.165C290.921 99.8193 290.169 100.146 289.295 100.146C288.514 100.146 287.872 99.9268 287.369 99.4873C286.871 99.043 286.622 98.4814 286.622 97.8027C286.622 96.9775 286.934 96.3379 287.559 95.8838C288.189 95.4248 289.073 95.1953 290.21 95.1953H291.529V94.5728C291.529 94.0991 291.387 93.7231 291.104 93.4448C290.821 93.1616 290.403 93.02 289.852 93.02C289.368 93.02 288.963 93.1421 288.636 93.3862C288.309 93.6304 288.145 93.9258 288.145 94.2725H286.783C286.783 93.877 286.922 93.4961 287.2 93.1299C287.483 92.7588 287.864 92.4658 288.343 92.251C288.826 92.0361 289.356 91.9287 289.932 91.9287C290.845 91.9287 291.561 92.1582 292.078 92.6172C292.596 93.0713 292.864 93.6987 292.884 94.4995V98.147C292.884 98.8745 292.977 99.4531 293.162 99.8828V100H291.741ZM289.493 98.9673C289.917 98.9673 290.32 98.8574 290.701 98.6377C291.082 98.418 291.358 98.1323 291.529 97.7808V96.1548H290.467C288.807 96.1548 287.977 96.6406 287.977 97.6123C287.977 98.0371 288.118 98.3691 288.401 98.6084C288.685 98.8477 289.048 98.9673 289.493 98.9673ZM299.622 97.8979C299.622 97.5317 299.483 97.2485 299.205 97.0483C298.931 96.8433 298.45 96.6675 297.762 96.521C297.078 96.3745 296.534 96.1987 296.128 95.9937C295.728 95.7886 295.43 95.5444 295.235 95.2612C295.044 94.978 294.949 94.6411 294.949 94.2505C294.949 93.6011 295.223 93.0518 295.77 92.6025C296.321 92.1533 297.024 91.9287 297.879 91.9287C298.777 91.9287 299.505 92.1606 300.062 92.6245C300.623 93.0884 300.904 93.6816 300.904 94.4043H299.542C299.542 94.0332 299.383 93.7134 299.065 93.4448C298.753 93.1763 298.357 93.042 297.879 93.042C297.386 93.042 297 93.1494 296.722 93.3643C296.443 93.5791 296.304 93.8599 296.304 94.2065C296.304 94.5337 296.434 94.7803 296.692 94.9463C296.951 95.1123 297.417 95.271 298.091 95.4224C298.77 95.5737 299.319 95.7544 299.739 95.9644C300.159 96.1743 300.469 96.4282 300.669 96.7261C300.875 97.019 300.977 97.3779 300.977 97.8027C300.977 98.5107 300.694 99.0796 300.127 99.5093C299.561 99.9341 298.826 100.146 297.923 100.146C297.288 100.146 296.727 100.034 296.238 99.8096C295.75 99.585 295.367 99.2725 295.088 98.8721C294.815 98.4668 294.678 98.0298 294.678 97.561H296.033C296.058 98.0151 296.238 98.3765 296.575 98.645C296.917 98.9087 297.366 99.0405 297.923 99.0405C298.436 99.0405 298.846 98.938 299.153 98.7329C299.466 98.5229 299.622 98.2446 299.622 97.8979ZM307.356 97.8979C307.356 97.5317 307.217 97.2485 306.939 97.0483C306.666 96.8433 306.185 96.6675 305.496 96.521C304.812 96.3745 304.268 96.1987 303.863 95.9937C303.462 95.7886 303.165 95.5444 302.969 95.2612C302.779 94.978 302.684 94.6411 302.684 94.2505C302.684 93.6011 302.957 93.0518 303.504 92.6025C304.056 92.1533 304.759 91.9287 305.613 91.9287C306.512 91.9287 307.239 92.1606 307.796 92.6245C308.357 93.0884 308.638 93.6816 308.638 94.4043H307.276C307.276 94.0332 307.117 93.7134 306.8 93.4448C306.487 93.1763 306.092 93.042 305.613 93.042C305.12 93.042 304.734 93.1494 304.456 93.3643C304.178 93.5791 304.039 93.8599 304.039 94.2065C304.039 94.5337 304.168 94.7803 304.427 94.9463C304.686 95.1123 305.152 95.271 305.826 95.4224C306.504 95.5737 307.054 95.7544 307.474 95.9644C307.894 96.1743 308.204 96.4282 308.404 96.7261C308.609 97.019 308.711 97.3779 308.711 97.8027C308.711 98.5107 308.428 99.0796 307.862 99.5093C307.295 99.9341 306.561 100.146 305.657 100.146C305.022 100.146 304.461 100.034 303.973 99.8096C303.484 99.585 303.101 99.2725 302.823 98.8721C302.549 98.4668 302.413 98.0298 302.413 97.561H303.768C303.792 98.0151 303.973 98.3765 304.31 98.645C304.651 98.9087 305.101 99.0405 305.657 99.0405C306.17 99.0405 306.58 98.938 306.888 98.7329C307.2 98.5229 307.356 98.2446 307.356 97.8979ZM315.369 100C315.291 99.8438 315.228 99.5654 315.179 99.165C314.549 99.8193 313.797 100.146 312.923 100.146C312.142 100.146 311.5 99.9268 310.997 99.4873C310.499 99.043 310.25 98.4814 310.25 97.8027C310.25 96.9775 310.562 96.3379 311.187 95.8838C311.817 95.4248 312.701 95.1953 313.838 95.1953H315.157V94.5728C315.157 94.0991 315.015 93.7231 314.732 93.4448C314.449 93.1616 314.031 93.02 313.479 93.02C312.996 93.02 312.591 93.1421 312.264 93.3862C311.937 93.6304 311.773 93.9258 311.773 94.2725H310.411C310.411 93.877 310.55 93.4961 310.828 93.1299C311.111 92.7588 311.492 92.4658 311.971 92.251C312.454 92.0361 312.984 91.9287 313.56 91.9287C314.473 91.9287 315.188 92.1582 315.706 92.6172C316.224 93.0713 316.492 93.6987 316.512 94.4995V98.147C316.512 98.8745 316.604 99.4531 316.79 99.8828V100H315.369ZM313.121 98.9673C313.545 98.9673 313.948 98.8574 314.329 98.6377C314.71 98.418 314.986 98.1323 315.157 97.7808V96.1548H314.095C312.435 96.1548 311.604 96.6406 311.604 97.6123C311.604 98.0371 311.746 98.3691 312.029 98.6084C312.312 98.8477 312.676 98.9673 313.121 98.9673ZM318.313 95.9717C318.313 94.7363 318.599 93.7549 319.17 93.0273C319.742 92.2949 320.499 91.9287 321.441 91.9287C322.408 91.9287 323.162 92.2705 323.704 92.9541L323.77 92.0752H325.008V99.8096C325.008 100.835 324.703 101.643 324.092 102.234C323.487 102.825 322.671 103.12 321.646 103.12C321.075 103.12 320.516 102.998 319.969 102.754C319.422 102.51 319.004 102.175 318.716 101.75L319.419 100.938C320 101.655 320.711 102.014 321.551 102.014C322.21 102.014 322.723 101.829 323.089 101.458C323.46 101.086 323.646 100.564 323.646 99.8901V99.209C323.104 99.834 322.364 100.146 321.426 100.146C320.499 100.146 319.747 99.7729 319.17 99.0259C318.599 98.2788 318.313 97.2607 318.313 95.9717ZM319.676 96.1255C319.676 97.019 319.859 97.7222 320.225 98.2349C320.591 98.7427 321.104 98.9966 321.763 98.9966C322.618 98.9966 323.245 98.6084 323.646 97.832V94.2139C323.23 93.457 322.608 93.0786 321.778 93.0786C321.119 93.0786 320.604 93.335 320.232 93.8477C319.861 94.3604 319.676 95.1196 319.676 96.1255ZM330.347 100.146C329.273 100.146 328.399 99.7949 327.725 99.0918C327.051 98.3838 326.714 97.439 326.714 96.2573V96.0083C326.714 95.2222 326.863 94.5215 327.161 93.9062C327.464 93.2861 327.884 92.8027 328.421 92.4561C328.963 92.1045 329.549 91.9287 330.179 91.9287C331.209 91.9287 332.01 92.2681 332.581 92.9468C333.152 93.6255 333.438 94.5972 333.438 95.8618V96.4258H328.069C328.089 97.207 328.316 97.8394 328.75 98.3228C329.19 98.8013 329.747 99.0405 330.42 99.0405C330.899 99.0405 331.304 98.9429 331.636 98.7476C331.968 98.5522 332.259 98.2935 332.508 97.9712L333.335 98.6157C332.671 99.6362 331.675 100.146 330.347 100.146ZM330.179 93.042C329.632 93.042 329.173 93.2422 328.802 93.6426C328.431 94.0381 328.201 94.5947 328.113 95.3125H332.083V95.21C332.044 94.5215 331.858 93.9893 331.526 93.6133C331.194 93.2324 330.745 93.042 330.179 93.042Z" fill="#1D1B44"/>
<rect x="14.5" y="15.5" width="99" height="61" rx="2.5" stroke="#E4E4E4"/>
<rect x="124.5" y="15.5" width="99" height="61" rx="2.5" stroke="#E4E4E4"/>
<rect x="234.5" y="15.5" width="99" height="61" rx="2.5" stroke="#E4E4E4"/>
<path d="M82.35 47H44.65C44.4776 47 44.3123 47.0702 44.1904 47.1953C44.0685 47.3203 44 47.4899 44 47.6667C44 50.3553 45.1404 53.3917 47.2111 56.2167C49.2718 59.0144 51.9611 61.2601 55.05 62.7625V66.3333C55.05 66.5101 55.1185 66.6797 55.2404 66.8047C55.3623 66.9298 55.5276 67 55.7 67H71.3C71.4724 67 71.6377 66.9298 71.7596 66.8047C71.8815 66.6797 71.95 66.5101 71.95 66.3333V62.7625C75.0389 61.2601 77.7282 59.0144 79.7888 56.2167C81.8596 53.3917 83 50.3553 83 47.6667C83 47.4899 82.9315 47.3203 82.8096 47.1953C82.6877 47.0702 82.5224 47 82.35 47ZM81.6727 48.3333C81.6353 48.782 81.5677 49.2275 81.4704 49.6667H45.5296C45.4323 49.2275 45.3647 48.782 45.3273 48.3333H81.6727ZM78.7497 55.4155C76.7844 58.097 74.0928 60.3123 71.1602 61.6667H68.7C68.5276 61.6667 68.3623 61.7369 68.2404 61.8619C68.1185 61.987 68.05 62.1565 68.05 62.3333C68.05 62.5101 68.1185 62.6797 68.2404 62.8047C68.3623 62.9298 68.5276 63 68.7 63H70.65V65.6667H56.35V63H66.1C66.2724 63 66.4377 62.9298 66.5596 62.8047C66.6815 62.6797 66.75 62.5101 66.75 62.3333C66.75 62.1565 66.6815 61.987 66.5596 61.8619C66.4377 61.7369 66.2724 61.6667 66.1 61.6667H55.8398C52.9072 60.3123 50.2159 58.097 48.2503 55.4155C47.2012 53.9848 46.4035 52.4707 45.9033 51H81.0967C80.5965 52.4707 79.7987 53.9848 78.7497 55.4155Z" fill="#1D1B44"/>
<path d="M54 54C54.5523 54 55 53.5523 55 53C55 52.4477 54.5523 52 54 52C53.4477 52 53 52.4477 53 53C53 53.5523 53.4477 54 54 54Z" fill="#1D1B44"/>
<path d="M57.5 54C57.7761 54 58 53.5523 58 53C58 52.4477 57.7761 52 57.5 52C57.2239 52 57 52.4477 57 53C57 53.5523 57.2239 54 57.5 54Z" fill="#1D1B44"/>
<path d="M61.5 54C61.7761 54 62 53.5523 62 53C62 52.4477 61.7761 52 61.5 52C61.2239 52 61 52.4477 61 53C61 53.5523 61.2239 54 61.5 54Z" fill="#1D1B44"/>
<path d="M65.5 54C65.7761 54 66 53.5523 66 53C66 52.4477 65.7761 52 65.5 52C65.2239 52 65 52.4477 65 53C65 53.5523 65.2239 54 65.5 54Z" fill="#1D1B44"/>
<path d="M69.5 54C69.7761 54 70 53.5523 70 53C70 52.4477 69.7761 52 69.5 52C69.2239 52 69 52.4477 69 53C69 53.5523 69.2239 54 69.5 54Z" fill="#1D1B44"/>
<path d="M73.5 54C73.7761 54 74 53.5523 74 53C74 52.4477 73.7761 52 73.5 52C73.2239 52 73 52.4477 73 53C73 53.5523 73.2239 54 73.5 54Z" fill="#1D1B44"/>
<path d="M77 54C77.5523 54 78 53.5523 78 53C78 52.4477 77.5523 52 77 52C76.4477 52 76 52.4477 76 53C76 53.5523 76.4477 54 77 54Z" fill="black"/>
<path d="M80.1043 43.9622L55.4464 43.3356L43.824 40.0243C43.7274 39.9968 43.626 39.9926 43.5276 40.0119C43.4292 40.0313 43.3364 40.0737 43.2567 40.1359C43.1769 40.1981 43.1122 40.2784 43.0677 40.3704C43.0232 40.4625 43 40.5639 43 40.6667V51.3333C43 51.4361 43.0232 51.5375 43.0677 51.6296C43.1122 51.7216 43.1769 51.8019 43.2567 51.8641C43.3364 51.9263 43.4292 51.9687 43.5276 51.9881C43.626 52.0074 43.7274 52.0032 43.824 51.9757L55.4464 48.6644L80.1073 48.0378C80.6151 48.0249 81.0978 47.8083 81.4516 47.4346C81.8055 47.0608 82.0024 46.5596 82 46.0387V45.9613C82.0022 45.4399 81.8049 44.9383 81.4504 44.5645C81.0959 44.1906 80.6126 43.9744 80.1043 43.9622ZM52.1 43.766V48.234L50.8 48.6044V43.3956L52.1 43.766ZM44.3 49.3333H44.95C45.1224 49.3333 45.2877 49.2631 45.4096 49.1381C45.5315 49.0131 45.6 48.8435 45.6 48.6667C45.6 48.4899 45.5315 48.3203 45.4096 48.1953C45.2877 48.0702 45.1224 48 44.95 48H44.3V46.6667H44.95C45.1224 46.6667 45.2877 46.5964 45.4096 46.4714C45.5315 46.3464 45.6 46.1768 45.6 46C45.6 45.8232 45.5315 45.6536 45.4096 45.5286C45.2877 45.4036 45.1224 45.3333 44.95 45.3333H44.3V44H44.95C45.1224 44 45.2877 43.9298 45.4096 43.8047C45.5315 43.6797 45.6 43.5101 45.6 43.3333C45.6 43.1565 45.5315 42.9869 45.4096 42.8619C45.2877 42.7369 45.1224 42.6667 44.95 42.6667H44.3V41.5437L49.5 43.025V48.975L44.3 50.4563V49.3333ZM54.7 47.4933L53.4 47.8637V44.1363L54.7 44.5067V47.4933ZM80.7 46.0387C80.701 46.2119 80.6359 46.3787 80.5186 46.5033C80.4012 46.6279 80.2409 46.7004 80.0721 46.7053L56 47.3167V44.6833L80.0691 45.2949C80.2384 45.2992 80.3993 45.3714 80.5173 45.4961C80.6353 45.6207 80.7009 45.7879 80.7 45.9616V46.0387Z" fill="#1D1B44"/>
<path d="M190.043 50.4678C190.043 49.9544 189.89 49.4526 189.605 49.0257C189.32 48.5988 188.914 48.2661 188.44 48.0697C187.966 47.8732 187.444 47.8218 186.94 47.9219C186.437 48.0221 185.974 48.2693 185.611 48.6323C185.248 48.9954 185.001 49.4579 184.901 49.9614C184.801 50.4649 184.852 50.9869 185.049 51.4612C185.245 51.9355 185.578 52.3409 186.005 52.6261C186.432 52.9113 186.933 53.0636 187.447 53.0636C188.135 53.0628 188.795 52.7891 189.281 52.3024C189.768 51.8158 190.042 51.156 190.043 50.4678ZM186.149 50.4678C186.149 50.2111 186.225 49.9602 186.368 49.7468C186.51 49.5333 186.713 49.367 186.95 49.2687C187.187 49.1705 187.448 49.1448 187.7 49.1949C187.952 49.245 188.183 49.3686 188.365 49.5501C188.546 49.7316 188.67 49.9629 188.72 50.2146C188.77 50.4664 188.744 50.7273 188.646 50.9645C188.548 51.2016 188.381 51.4043 188.168 51.547C187.954 51.6896 187.704 51.7657 187.447 51.7657C187.103 51.7653 186.773 51.6284 186.53 51.3851C186.286 51.1418 186.149 50.8119 186.149 50.4678Z" fill="#1D1B44"/>
<path d="M190.043 33.5957C189.272 33.5957 188.52 33.8241 187.879 34.2519C187.239 34.6797 186.74 35.2878 186.445 35.9993C186.151 36.7108 186.074 37.4936 186.224 38.2489C186.374 39.0042 186.745 39.698 187.289 40.2425C187.834 40.7871 188.528 41.1579 189.283 41.3081C190.038 41.4584 190.821 41.3813 191.533 41.0866C192.244 40.7919 192.852 40.2928 193.28 39.6525C193.708 39.0122 193.936 38.2594 193.936 37.4893C193.935 36.457 193.524 35.4674 192.794 34.7374C192.065 34.0075 191.075 33.5969 190.043 33.5957ZM190.043 40.0851C189.529 40.0851 189.027 39.9328 188.6 39.6476C188.174 39.3624 187.841 38.957 187.644 38.4827C187.448 38.0084 187.397 37.4864 187.497 36.9829C187.597 36.4794 187.844 36.0169 188.207 35.6539C188.57 35.2908 189.033 35.0436 189.536 34.9435C190.04 34.8433 190.562 34.8947 191.036 35.0912C191.51 35.2876 191.916 35.6203 192.201 36.0472C192.486 36.4741 192.638 36.9759 192.638 37.4893C192.638 38.1775 192.364 38.8373 191.877 39.3239C191.391 39.8106 190.731 40.0843 190.043 40.0851Z" fill="#1D1B44"/>
<path d="M180.958 46.5743C181.599 46.5743 182.227 46.384 182.76 46.0275C183.294 45.671 183.71 45.1642 183.955 44.5713C184.201 43.9784 184.265 43.326 184.14 42.6966C184.015 42.0672 183.706 41.4891 183.252 41.0353C182.798 40.5815 182.22 40.2725 181.591 40.1473C180.961 40.0221 180.309 40.0864 179.716 40.3319C179.123 40.5775 178.616 40.9934 178.26 41.527C177.903 42.0606 177.713 42.6879 177.713 43.3296C177.714 44.1899 178.056 45.0146 178.664 45.6229C179.273 46.2312 180.097 46.5734 180.958 46.5743ZM180.958 41.3828C181.343 41.3828 181.719 41.497 182.039 41.7109C182.359 41.9248 182.609 42.2289 182.756 42.5846C182.904 42.9404 182.942 43.3318 182.867 43.7094C182.792 44.0871 182.606 44.434 182.334 44.7062C182.062 44.9785 181.715 45.1639 181.337 45.239C180.96 45.3142 180.568 45.2756 180.213 45.1283C179.857 44.9809 179.553 44.7314 179.339 44.4112C179.125 44.0911 179.011 43.7147 179.011 43.3296C179.011 42.8135 179.217 42.3187 179.582 41.9537C179.947 41.5887 180.441 41.3834 180.958 41.3828Z" fill="#1D1B44"/>
<path d="M171.872 47.8721H164.085C163.913 47.8721 163.748 47.9404 163.626 48.0621C163.504 48.1838 163.436 48.3489 163.436 48.521V52.4146C163.436 52.5867 163.504 52.7518 163.626 52.8735C163.748 52.9952 163.913 53.0636 164.085 53.0636H171.872C172.044 53.0636 172.209 52.9952 172.331 52.8735C172.453 52.7518 172.521 52.5867 172.521 52.4146V48.521C172.521 48.3489 172.453 48.1838 172.331 48.0621C172.209 47.9404 172.044 47.8721 171.872 47.8721ZM171.223 51.7657H164.734V49.1699H171.223V51.7657Z" fill="#1D1B44"/>
<path d="M193.287 64.7447H188.516C189.457 63.9867 190.14 62.9555 190.47 61.7933C190.799 60.6311 190.761 59.3952 190.359 58.2559C189.956 57.1167 189.211 56.1303 188.224 55.4328C187.238 54.7353 186.059 54.3611 184.851 54.3617C184.196 54.3617 183.566 54.5032 182.9 54.653C182.117 54.8288 181.308 55.0106 180.309 55.0106C179.309 55.0106 178.5 54.8288 177.717 54.653C177.051 54.5032 176.421 54.3617 175.766 54.3617V44.6277C175.765 43.7674 175.423 42.9427 174.815 42.3344C174.206 41.7261 173.382 41.3839 172.521 41.383H171.872V39.4362C171.872 39.2641 171.804 39.099 171.682 38.9773C171.561 38.8556 171.396 38.7872 171.223 38.7872H169.926V34.8936H172.521V36.8404C172.521 37.0125 172.59 37.1776 172.711 37.2993C172.833 37.421 172.998 37.4894 173.17 37.4894H175.766C175.938 37.4894 176.103 37.421 176.225 37.2993C176.347 37.1776 176.415 37.0125 176.415 36.8404V34.2447C176.414 33.3844 176.072 32.5597 175.463 31.9514C174.855 31.3431 174.03 31.001 173.17 31H165.383C164.867 31.0006 164.372 31.2059 164.007 31.5708C163.642 31.9358 163.437 32.4307 163.436 32.9468V34.2447C163.436 34.4168 163.505 34.5818 163.626 34.7035C163.748 34.8252 163.913 34.8936 164.085 34.8936H166.032V38.7872H164.734C164.562 38.7872 164.397 38.8556 164.275 38.9773C164.153 39.099 164.085 39.2641 164.085 39.4362V41.383H163.436C162.576 41.3839 161.751 41.7261 161.143 42.3344C160.535 42.9427 160.192 43.7674 160.191 44.6277V62.7979C160.191 63.5003 160.419 64.1838 160.842 64.7447H155.649C155.477 64.7447 155.312 64.813 155.19 64.9347C155.068 65.0564 155 65.2215 155 65.3936C155.001 66.2539 155.343 67.0786 155.951 67.6869C156.56 68.2952 157.384 68.6373 158.245 68.6383H190.691C191.552 68.6373 192.376 68.2952 192.985 67.6869C193.593 67.0786 193.935 66.2539 193.936 65.3936C193.936 65.2215 193.868 65.0564 193.746 64.9347C193.624 64.813 193.459 64.7447 193.287 64.7447ZM177.433 55.9191C178.245 56.1017 179.165 56.3085 180.309 56.3085C181.452 56.3085 182.372 56.1017 183.184 55.9191C183.805 55.7799 184.34 55.6596 184.851 55.6596C186.056 55.6596 187.211 56.1382 188.063 56.9901C188.915 57.8419 189.394 58.9974 189.394 60.2021C189.394 61.4069 188.915 62.5623 188.063 63.4142C187.211 64.2661 186.056 64.7447 184.851 64.7447H175.766C174.561 64.7447 173.406 64.2661 172.554 63.4142C171.702 62.5623 171.223 61.4069 171.223 60.2021C171.223 58.9974 171.702 57.8419 172.554 56.9901C173.406 56.1382 174.561 55.6596 175.766 55.6596C176.277 55.6596 176.812 55.7799 177.433 55.9191ZM169.926 60.2021C169.926 60.4189 169.938 60.6356 169.962 60.8511H161.489V46.5745H174.468V54.5088C173.179 54.8044 172.028 55.5282 171.203 56.5622C170.378 57.5962 169.927 58.8793 169.926 60.2021ZM164.734 32.9468C164.734 32.7748 164.803 32.6098 164.924 32.4882C165.046 32.3665 165.211 32.2981 165.383 32.2979H173.17C173.686 32.2985 174.181 32.5037 174.546 32.8687C174.911 33.2337 175.116 33.7285 175.117 34.2447V36.1915H173.819V34.2447C173.819 34.0726 173.751 33.9075 173.629 33.7858C173.507 33.6641 173.342 33.5957 173.17 33.5957H164.734V32.9468ZM167.33 34.8936H168.628V38.7872H167.33V34.8936ZM165.383 40.0851H170.574V41.383H165.383V40.0851ZM163.436 42.6808H172.521C173.037 42.6814 173.532 42.8867 173.897 43.2517C174.262 43.6167 174.468 44.1115 174.468 44.6277V45.2766H161.489V44.6277C161.49 44.1115 161.695 43.6167 162.06 43.2517C162.425 42.8867 162.92 42.6814 163.436 42.6808ZM161.489 62.7979V62.1489H170.26C170.623 63.1673 171.26 64.0656 172.101 64.7447H163.436C162.92 64.7441 162.425 64.5388 162.06 64.1738C161.695 63.8089 161.49 63.314 161.489 62.7979ZM190.691 67.3404H158.245C157.842 67.3399 157.45 67.215 157.121 66.9826C156.792 66.7502 156.544 66.4219 156.409 66.0425H192.527C192.392 66.4219 192.144 66.7502 191.815 66.9826C191.486 67.215 191.094 67.3399 190.691 67.3404Z" fill="#1D1B44"/>
<path d="M175.117 57.606C175.117 57.7781 175.186 57.9431 175.307 58.0648C175.429 58.1865 175.594 58.2549 175.766 58.2549C176.277 58.2549 176.813 58.3752 177.433 58.5145C178.245 58.6971 179.165 58.9038 180.309 58.9038C181.452 58.9038 182.373 58.6971 183.184 58.5145C183.805 58.3752 184.34 58.2549 184.851 58.2549C185.023 58.2549 185.188 58.1865 185.31 58.0648C185.432 57.9431 185.5 57.7781 185.5 57.606C185.5 57.4339 185.432 57.2688 185.31 57.1471C185.188 57.0254 185.023 56.957 184.851 56.957C184.196 56.957 183.566 57.0985 182.9 57.2483C182.118 57.4241 181.308 57.606 180.309 57.606C179.309 57.606 178.5 57.4241 177.717 57.2483C177.051 57.0985 176.422 56.957 175.766 56.957C175.594 56.957 175.429 57.0254 175.307 57.1471C175.186 57.2688 175.117 57.4339 175.117 57.606Z" fill="#1D1B44"/>
<path d="M295.199 32.9092C291.527 29.7434 286.65 28 281.468 28C276.286 28 271.41 29.7434 267.737 32.9092C264.037 36.0986 262 40.3471 262 44.8723C262 49.8487 264.507 54.5313 268.884 57.7465C269.123 58.2426 269.385 58.7309 269.672 59.2112L268.199 59.9475C268.091 60.0014 268.001 60.0843 267.937 60.1868C267.874 60.2893 267.84 60.4074 267.84 60.5279C267.84 60.6484 267.874 60.7665 267.937 60.8691C268.001 60.9716 268.091 61.0544 268.199 61.1083L270.021 62.0193C270.397 62.2083 270.703 62.5136 270.892 62.8899L271.803 64.7118C271.856 64.8195 271.939 64.9102 272.042 64.9735C272.144 65.0369 272.262 65.0704 272.383 65.0704C272.503 65.0704 272.622 65.0369 272.724 64.9735C272.827 64.9102 272.909 64.8195 272.963 64.7118L273.459 63.72C275.912 65.7998 278.726 66.9362 281.468 66.9362H290.553C290.65 66.9362 290.746 66.9143 290.834 66.8723C290.921 66.8303 290.998 66.7691 291.059 66.6934L296.767 59.5813C297.362 58.9764 297.694 58.1616 297.691 57.3135V54.2033C299.814 51.4359 300.936 48.2144 300.936 44.8723C300.936 40.3471 298.899 36.0986 295.199 32.9092ZM263.298 44.8723C263.298 36.2846 271.449 29.2979 281.468 29.2979C283.662 29.294 285.844 29.6378 287.93 30.3167C287.763 31.5509 286.827 33.4364 285.495 35.1789C284.03 37.0952 282.412 38.383 281.468 38.383C277.532 38.383 273.965 39.5056 271.426 41.5439C268.656 43.7672 267.191 46.9377 267.191 50.7128C267.201 52.2424 267.438 53.7621 267.894 55.2223C264.948 52.3873 263.298 48.7211 263.298 44.8723ZM293.299 48.2109C293.047 48.4586 292.847 48.7538 292.71 49.0793C292.573 49.4049 292.501 49.7544 292.5 50.1077V56.3305L291.352 57.8069C291.188 57.4126 290.93 57.0648 290.6 56.7942C290.27 56.5235 289.878 56.3384 289.46 56.2552C289.041 56.172 288.609 56.1933 288.2 56.3172C287.792 56.4412 287.42 56.6638 287.118 56.9656C287.091 56.9934 287.065 57.0237 287.043 57.0562L281.132 65.631C278.728 65.5384 276.257 64.4571 274.092 62.552C274.268 62.3291 274.491 62.1473 274.745 62.0193L276.567 61.1083C276.675 61.0544 276.765 60.9716 276.829 60.8691C276.892 60.7665 276.925 60.6484 276.925 60.5279C276.925 60.4074 276.892 60.2893 276.829 60.1868C276.765 60.0843 276.675 60.0014 276.567 59.9475L274.745 59.0366C274.369 58.8475 274.063 58.5422 273.874 58.166L272.963 56.3441C272.909 56.2363 272.827 56.1457 272.724 56.0823C272.622 56.019 272.503 55.9854 272.383 55.9854C272.262 55.9854 272.144 56.019 272.042 56.0823C271.939 56.1457 271.856 56.2363 271.803 56.3441L270.892 58.1659C270.843 58.262 270.787 58.3538 270.724 58.4405C269.279 55.9811 268.489 53.2642 268.489 50.7128C268.489 47.345 269.786 44.5244 272.238 42.556C274.548 40.702 277.826 39.6809 281.468 39.6809C284.682 39.6809 287.566 40.4528 289.809 41.9133C291.956 43.311 293.417 45.2994 294.062 47.6888C293.779 47.816 293.52 47.9928 293.299 48.2109ZM272.383 62.9704L272.053 62.3094C271.737 61.6824 271.228 61.1735 270.601 60.8584L269.94 60.5279L270.601 60.1974C271.229 59.8823 271.737 59.3734 272.053 58.7463L272.383 58.0854L272.713 58.7464C273.029 59.3735 273.537 59.8823 274.165 60.1974L274.825 60.5279L274.165 60.8584C273.537 61.1736 273.029 61.6824 272.713 62.3095L272.383 62.9704ZM296.394 57.3135C296.394 57.5693 296.344 57.8226 296.246 58.0589C296.149 58.2952 296.005 58.5097 295.823 58.6901C295.807 58.7067 295.791 58.7243 295.776 58.7428L290.242 65.6383H282.704L288.075 57.8468C288.324 57.6157 288.655 57.4918 288.995 57.5018C289.335 57.5119 289.657 57.655 289.893 57.9004C290.128 58.1458 290.258 58.4739 290.254 58.814C290.25 59.1541 290.113 59.4792 289.872 59.7191C289.848 59.7432 289.826 59.7691 289.806 59.7966L288.082 62.1697C287.984 62.3091 287.946 62.481 287.974 62.6487C288.002 62.8163 288.095 62.9661 288.232 63.066C288.37 63.1659 288.541 63.2078 288.709 63.1828C288.877 63.1577 289.029 63.0678 289.132 62.9321L290.828 60.5975C290.955 60.4647 291.068 60.3188 291.164 60.1621L293.661 56.9512V56.9504C293.75 56.837 293.798 56.6971 293.798 56.5532V50.1077C293.799 49.9269 293.835 49.748 293.906 49.5815C293.976 49.4149 294.079 49.264 294.208 49.1373C294.328 49.0175 294.47 48.9229 294.627 48.8591C294.784 48.7953 294.952 48.7637 295.121 48.766C295.46 48.7742 295.783 48.9143 296.021 49.1567C296.258 49.399 296.392 49.7244 296.394 50.0638V57.3135ZM295.35 47.4814C294.64 44.7211 292.978 42.4278 290.518 40.8257C288.692 39.637 286.493 38.8655 284.059 38.5481C285.127 37.7065 286.043 36.5992 286.526 35.9666C288.14 33.8558 288.92 32.0215 289.166 30.767C295.347 33.2551 299.638 38.6418 299.638 44.8723C299.633 47.3443 298.96 49.7689 297.691 51.8904V50.0638C297.688 49.4205 297.447 48.8011 297.015 48.3245C296.583 47.8478 295.99 47.5476 295.35 47.4814Z" fill="#1D1B44"/>
<path d="M276.926 50.7129C277.098 50.7129 277.263 50.6446 277.385 50.5229C277.506 50.4012 277.575 50.2361 277.575 50.064C277.575 49.5477 277.37 49.0525 277.005 48.6874C276.639 48.3223 276.144 48.1172 275.628 48.1172C275.112 48.1172 274.616 48.3223 274.251 48.6874C273.886 49.0525 273.681 49.5477 273.681 50.064C273.681 50.2361 273.75 50.4012 273.871 50.5229C273.993 50.6446 274.158 50.7129 274.33 50.7129C274.502 50.7129 274.667 50.6446 274.789 50.5229C274.911 50.4012 274.979 50.2361 274.979 50.064C274.979 49.8919 275.047 49.7268 275.169 49.6051C275.291 49.4834 275.456 49.4151 275.628 49.4151C275.8 49.4151 275.965 49.4834 276.087 49.6051C276.209 49.7268 276.277 49.8919 276.277 50.064C276.277 50.2361 276.345 50.4012 276.467 50.5229C276.589 50.6446 276.754 50.7129 276.926 50.7129Z" fill="#1D1B44"/>
<path d="M287.309 48.1172C286.792 48.1178 286.298 48.3231 285.933 48.688C285.568 49.053 285.362 49.5478 285.362 50.064C285.362 50.2361 285.43 50.4012 285.552 50.5229C285.674 50.6446 285.839 50.7129 286.011 50.7129C286.183 50.7129 286.348 50.6446 286.47 50.5229C286.591 50.4012 286.66 50.2361 286.66 50.064C286.66 49.8919 286.728 49.7268 286.85 49.6051C286.971 49.4834 287.137 49.4151 287.309 49.4151C287.481 49.4151 287.646 49.4834 287.767 49.6051C287.889 49.7268 287.958 49.8919 287.958 50.064C287.958 50.2361 288.026 50.4012 288.148 50.5229C288.269 50.6446 288.434 50.7129 288.606 50.7129C288.779 50.7129 288.944 50.6446 289.065 50.5229C289.187 50.4012 289.255 50.2361 289.255 50.064C289.255 49.5478 289.05 49.053 288.685 48.688C288.32 48.3231 287.825 48.1178 287.309 48.1172Z" fill="#1D1B44"/>
<path d="M286.271 54.6609C286.113 54.5919 285.934 54.5883 285.774 54.6511C285.614 54.7138 285.485 54.8376 285.416 54.9952C285.406 55.0173 284.416 57.2022 281.468 57.2022C278.558 57.2022 277.564 55.0918 277.519 54.9923C277.449 54.8358 277.319 54.7135 277.159 54.6519C276.999 54.5903 276.822 54.5945 276.665 54.6636C276.508 54.7327 276.385 54.8611 276.322 55.0207C276.26 55.1803 276.263 55.3582 276.331 55.5155C276.384 55.6374 277.68 58.5001 281.468 58.5001C285.256 58.5001 286.552 55.6374 286.605 55.5155C286.674 55.3578 286.677 55.1792 286.615 55.0189C286.552 54.8587 286.428 54.7299 286.271 54.6609Z" fill="#1D1B44"/>
<path d="M280.17 53.3087H282.766C282.938 53.3087 283.103 53.2403 283.225 53.1186C283.346 52.9969 283.415 52.8318 283.415 52.6597C283.415 52.4876 283.346 52.3226 283.225 52.2009C283.103 52.0792 282.938 52.0108 282.766 52.0108H280.819V50.064C280.819 49.8919 280.75 49.7268 280.629 49.6051C280.507 49.4834 280.342 49.415 280.17 49.415C279.998 49.415 279.833 49.4834 279.711 49.6051C279.589 49.7268 279.521 49.8919 279.521 50.064V52.6597C279.521 52.8318 279.589 52.9969 279.711 53.1186C279.833 53.2403 279.998 53.3087 280.17 53.3087Z" fill="#1D1B44"/>
<path d="M349.651 98.8501H354.705V100H348.238V89.3359H349.651V98.8501ZM359.385 100.146C358.311 100.146 357.437 99.7949 356.763 99.0918C356.089 98.3838 355.752 97.439 355.752 96.2573V96.0083C355.752 95.2222 355.901 94.5215 356.199 93.9062C356.502 93.2861 356.922 92.8027 357.459 92.4561C358.001 92.1045 358.587 91.9287 359.217 91.9287C360.247 91.9287 361.048 92.2681 361.619 92.9468C362.19 93.6255 362.476 94.5972 362.476 95.8618V96.4258H357.107C357.127 97.207 357.354 97.8394 357.789 98.3228C358.228 98.8013 358.785 99.0405 359.458 99.0405C359.937 99.0405 360.342 98.9429 360.674 98.7476C361.006 98.5522 361.297 98.2935 361.546 97.9712L362.374 98.6157C361.709 99.6362 360.713 100.146 359.385 100.146ZM359.217 93.042C358.67 93.042 358.211 93.2422 357.84 93.6426C357.469 94.0381 357.239 94.5947 357.151 95.3125H361.121V95.21C361.082 94.5215 360.896 93.9893 360.564 93.6133C360.232 93.2324 359.783 93.042 359.217 93.042ZM363.729 95.9717C363.729 94.7363 364.014 93.7549 364.585 93.0273C365.157 92.2949 365.914 91.9287 366.856 91.9287C367.823 91.9287 368.577 92.2705 369.119 92.9541L369.185 92.0752H370.423V99.8096C370.423 100.835 370.118 101.643 369.507 102.234C368.902 102.825 368.086 103.12 367.061 103.12C366.49 103.12 365.931 102.998 365.384 102.754C364.837 102.51 364.419 102.175 364.131 101.75L364.834 100.938C365.416 101.655 366.126 102.014 366.966 102.014C367.625 102.014 368.138 101.829 368.504 101.458C368.875 101.086 369.061 100.564 369.061 99.8901V99.209C368.519 99.834 367.779 100.146 366.841 100.146C365.914 100.146 365.162 99.7729 364.585 99.0259C364.014 98.2788 363.729 97.2607 363.729 95.9717ZM365.091 96.1255C365.091 97.019 365.274 97.7222 365.64 98.2349C366.006 98.7427 366.519 98.9966 367.178 98.9966C368.033 98.9966 368.66 98.6084 369.061 97.832V94.2139C368.646 93.457 368.023 93.0786 367.193 93.0786C366.534 93.0786 366.019 93.335 365.647 93.8477C365.276 94.3604 365.091 95.1196 365.091 96.1255ZM378.223 89.3359L381.709 98.0371L385.196 89.3359H387.02V100H385.613V95.8472L385.745 91.3647L382.244 100H381.167L377.674 91.3867L377.813 95.8472V100H376.407V89.3359H378.223ZM394.183 100C394.104 99.8438 394.041 99.5654 393.992 99.165C393.362 99.8193 392.61 100.146 391.736 100.146C390.955 100.146 390.313 99.9268 389.81 99.4873C389.312 99.043 389.063 98.4814 389.063 97.8027C389.063 96.9775 389.375 96.3379 390 95.8838C390.63 95.4248 391.514 95.1953 392.652 95.1953H393.97V94.5728C393.97 94.0991 393.829 93.7231 393.545 93.4448C393.262 93.1616 392.845 93.02 392.293 93.02C391.81 93.02 391.404 93.1421 391.077 93.3862C390.75 93.6304 390.586 93.9258 390.586 94.2725H389.224C389.224 93.877 389.363 93.4961 389.642 93.1299C389.925 92.7588 390.306 92.4658 390.784 92.251C391.268 92.0361 391.797 91.9287 392.374 91.9287C393.287 91.9287 394.002 92.1582 394.52 92.6172C395.037 93.0713 395.306 93.6987 395.325 94.4995V98.147C395.325 98.8745 395.418 99.4531 395.604 99.8828V100H394.183ZM391.934 98.9673C392.359 98.9673 392.762 98.8574 393.143 98.6377C393.523 98.418 393.799 98.1323 393.97 97.7808V96.1548H392.908C391.248 96.1548 390.418 96.6406 390.418 97.6123C390.418 98.0371 390.56 98.3691 390.843 98.6084C391.126 98.8477 391.49 98.9673 391.934 98.9673ZM402.063 97.8979C402.063 97.5317 401.924 97.2485 401.646 97.0483C401.373 96.8433 400.892 96.6675 400.203 96.521C399.52 96.3745 398.975 96.1987 398.57 95.9937C398.169 95.7886 397.872 95.5444 397.676 95.2612C397.486 94.978 397.391 94.6411 397.391 94.2505C397.391 93.6011 397.664 93.0518 398.211 92.6025C398.763 92.1533 399.466 91.9287 400.32 91.9287C401.219 91.9287 401.946 92.1606 402.503 92.6245C403.064 93.0884 403.345 93.6816 403.345 94.4043H401.983C401.983 94.0332 401.824 93.7134 401.507 93.4448C401.194 93.1763 400.799 93.042 400.32 93.042C399.827 93.042 399.441 93.1494 399.163 93.3643C398.885 93.5791 398.746 93.8599 398.746 94.2065C398.746 94.5337 398.875 94.7803 399.134 94.9463C399.393 95.1123 399.859 95.271 400.533 95.4224C401.211 95.5737 401.761 95.7544 402.181 95.9644C402.601 96.1743 402.911 96.4282 403.111 96.7261C403.316 97.019 403.418 97.3779 403.418 97.8027C403.418 98.5107 403.135 99.0796 402.569 99.5093C402.002 99.9341 401.268 100.146 400.364 100.146C399.729 100.146 399.168 100.034 398.68 99.8096C398.191 99.585 397.808 99.2725 397.53 98.8721C397.256 98.4668 397.12 98.0298 397.12 97.561H398.475C398.499 98.0151 398.68 98.3765 399.017 98.645C399.358 98.9087 399.808 99.0405 400.364 99.0405C400.877 99.0405 401.287 98.938 401.595 98.7329C401.907 98.5229 402.063 98.2446 402.063 97.8979ZM409.798 97.8979C409.798 97.5317 409.659 97.2485 409.38 97.0483C409.107 96.8433 408.626 96.6675 407.938 96.521C407.254 96.3745 406.709 96.1987 406.304 95.9937C405.904 95.7886 405.606 95.5444 405.411 95.2612C405.22 94.978 405.125 94.6411 405.125 94.2505C405.125 93.6011 405.398 93.0518 405.945 92.6025C406.497 92.1533 407.2 91.9287 408.055 91.9287C408.953 91.9287 409.681 92.1606 410.237 92.6245C410.799 93.0884 411.08 93.6816 411.08 94.4043H409.717C409.717 94.0332 409.559 93.7134 409.241 93.4448C408.929 93.1763 408.533 93.042 408.055 93.042C407.562 93.042 407.176 93.1494 406.897 93.3643C406.619 93.5791 406.48 93.8599 406.48 94.2065C406.48 94.5337 406.609 94.7803 406.868 94.9463C407.127 95.1123 407.593 95.271 408.267 95.4224C408.946 95.5737 409.495 95.7544 409.915 95.9644C410.335 96.1743 410.645 96.4282 410.845 96.7261C411.05 97.019 411.153 97.3779 411.153 97.8027C411.153 98.5107 410.87 99.0796 410.303 99.5093C409.737 99.9341 409.002 100.146 408.099 100.146C407.464 100.146 406.902 100.034 406.414 99.8096C405.926 99.585 405.542 99.2725 405.264 98.8721C404.991 98.4668 404.854 98.0298 404.854 97.561H406.209C406.233 98.0151 406.414 98.3765 406.751 98.645C407.093 98.9087 407.542 99.0405 408.099 99.0405C408.611 99.0405 409.021 98.938 409.329 98.7329C409.642 98.5229 409.798 98.2446 409.798 97.8979ZM417.811 100C417.732 99.8438 417.669 99.5654 417.62 99.165C416.99 99.8193 416.238 100.146 415.364 100.146C414.583 100.146 413.941 99.9268 413.438 99.4873C412.94 99.043 412.691 98.4814 412.691 97.8027C412.691 96.9775 413.003 96.3379 413.628 95.8838C414.258 95.4248 415.142 95.1953 416.28 95.1953H417.598V94.5728C417.598 94.0991 417.457 93.7231 417.173 93.4448C416.89 93.1616 416.473 93.02 415.921 93.02C415.438 93.02 415.032 93.1421 414.705 93.3862C414.378 93.6304 414.214 93.9258 414.214 94.2725H412.852C412.852 93.877 412.991 93.4961 413.27 93.1299C413.553 92.7588 413.934 92.4658 414.412 92.251C414.896 92.0361 415.425 91.9287 416.001 91.9287C416.915 91.9287 417.63 92.1582 418.147 92.6172C418.665 93.0713 418.934 93.6987 418.953 94.4995V98.147C418.953 98.8745 419.046 99.4531 419.231 99.8828V100H417.811ZM415.562 98.9673C415.987 98.9673 416.39 98.8574 416.771 98.6377C417.151 98.418 417.427 98.1323 417.598 97.7808V96.1548H416.536C414.876 96.1548 414.046 96.6406 414.046 97.6123C414.046 98.0371 414.188 98.3691 414.471 98.6084C414.754 98.8477 415.118 98.9673 415.562 98.9673ZM420.755 95.9717C420.755 94.7363 421.041 93.7549 421.612 93.0273C422.183 92.2949 422.94 91.9287 423.882 91.9287C424.849 91.9287 425.604 92.2705 426.146 92.9541L426.211 92.0752H427.449V99.8096C427.449 100.835 427.144 101.643 426.534 102.234C425.928 102.825 425.113 103.12 424.087 103.12C423.516 103.12 422.957 102.998 422.41 102.754C421.863 102.51 421.446 102.175 421.158 101.75L421.861 100.938C422.442 101.655 423.152 102.014 423.992 102.014C424.651 102.014 425.164 101.829 425.53 101.458C425.901 101.086 426.087 100.564 426.087 99.8901V99.209C425.545 99.834 424.805 100.146 423.868 100.146C422.94 100.146 422.188 99.7729 421.612 99.0259C421.041 98.2788 420.755 97.2607 420.755 95.9717ZM422.117 96.1255C422.117 97.019 422.3 97.7222 422.667 98.2349C423.033 98.7427 423.545 98.9966 424.205 98.9966C425.059 98.9966 425.687 98.6084 426.087 97.832V94.2139C425.672 93.457 425.049 93.0786 424.219 93.0786C423.56 93.0786 423.045 93.335 422.674 93.8477C422.303 94.3604 422.117 95.1196 422.117 96.1255ZM432.789 100.146C431.714 100.146 430.84 99.7949 430.167 99.0918C429.493 98.3838 429.156 97.439 429.156 96.2573V96.0083C429.156 95.2222 429.305 94.5215 429.603 93.9062C429.905 93.2861 430.325 92.8027 430.862 92.4561C431.404 92.1045 431.99 91.9287 432.62 91.9287C433.65 91.9287 434.451 92.2681 435.022 92.9468C435.594 93.6255 435.879 94.5972 435.879 95.8618V96.4258H430.511C430.53 97.207 430.757 97.8394 431.192 98.3228C431.631 98.8013 432.188 99.0405 432.862 99.0405C433.34 99.0405 433.746 98.9429 434.078 98.7476C434.41 98.5522 434.7 98.2935 434.949 97.9712L435.777 98.6157C435.113 99.6362 434.117 100.146 432.789 100.146ZM432.62 93.042C432.073 93.042 431.614 93.2422 431.243 93.6426C430.872 94.0381 430.643 94.5947 430.555 95.3125H434.524V95.21C434.485 94.5215 434.3 93.9893 433.968 93.6133C433.636 93.2324 433.187 93.042 432.62 93.042Z" fill="#1D1B44"/>
<rect x="344.5" y="15.5" width="99" height="61" rx="2.5" stroke="#E4E4E4"/>
<path d="M408.417 36.6667H402.717L403.163 32.6478C403.172 32.5663 403.164 32.4837 403.139 32.4056C403.114 32.3274 403.073 32.2554 403.018 32.1943C402.963 32.1332 402.896 32.0843 402.821 32.0508C402.746 32.0173 402.665 32 402.583 32H392.083C392 32 391.917 32.018 391.841 32.0526C391.765 32.0873 391.697 32.138 391.643 32.2011C391.588 32.2642 391.547 32.3384 391.524 32.4186C391.5 32.4988 391.494 32.5831 391.506 32.6658L392.077 36.6667H390.923L391.494 32.6658C391.506 32.5831 391.5 32.4988 391.476 32.4186C391.453 32.3384 391.412 32.2642 391.357 32.2011C391.303 32.138 391.235 32.0873 391.159 32.0526C391.083 32.018 391 32 390.917 32H380.417C380.335 32 380.254 32.0173 380.179 32.0508C380.104 32.0843 380.037 32.1332 379.982 32.1943C379.927 32.2554 379.886 32.3274 379.861 32.4056C379.836 32.4837 379.828 32.5663 379.837 32.6478L380.283 36.6667H374.583C374.429 36.6667 374.28 36.7281 374.171 36.8375C374.061 36.9469 374 37.0953 374 37.25V66.4167C374 66.5714 374.061 66.7197 374.171 66.8291C374.28 66.9385 374.429 67 374.583 67H408.417C408.571 67 408.72 66.9385 408.829 66.8291C408.939 66.7197 409 66.5714 409 66.4167V37.25C409 37.0953 408.939 36.9469 408.829 36.8375C408.72 36.7281 408.571 36.6667 408.417 36.6667ZM407.833 37.8333V44.2368C406.62 44.1798 405.939 43.9451 405.223 43.6986C404.655 43.4872 404.069 43.327 403.472 43.2201C403.086 41.2932 402.738 39.4714 402.586 37.8388L402.587 37.8331L407.833 37.8333ZM402 55.9167C401.845 55.9167 401.697 55.9781 401.588 56.0875C401.478 56.1969 401.417 56.3453 401.417 56.5V59.4167C401.417 59.5714 401.355 59.7197 401.246 59.8291C401.136 59.9385 400.988 60 400.833 60C400.679 60 400.53 59.9385 400.421 59.8291C400.311 59.7197 400.25 59.5714 400.25 59.4167V57.6667C400.25 57.512 400.189 57.3636 400.079 57.2542C399.97 57.1448 399.821 57.0833 399.667 57.0833C399.512 57.0833 399.364 57.1448 399.254 57.2542C399.145 57.3636 399.083 57.512 399.083 57.6667V60.5833C399.083 60.738 399.022 60.8864 398.912 60.9958C398.803 61.1052 398.655 61.1667 398.5 61.1667C398.345 61.1667 398.197 61.1052 398.088 60.9958C397.978 60.8864 397.917 60.738 397.917 60.5833C397.917 60.5824 397.917 60.5814 397.917 60.5805V58.8333C397.917 58.6786 397.855 58.5302 397.746 58.4209C397.636 58.3115 397.488 58.25 397.333 58.25C397.179 58.25 397.03 58.3115 396.921 58.4209C396.811 58.5302 396.75 58.6786 396.75 58.8333V60.5833C396.75 60.5843 396.75 60.5852 396.75 60.5862V61.75C396.75 61.9047 396.689 62.0531 396.579 62.1625C396.47 62.2719 396.321 62.3333 396.167 62.3333C396.012 62.3333 395.864 62.2719 395.754 62.1625C395.645 62.0531 395.583 61.9047 395.583 61.75C395.583 61.7485 395.583 61.7472 395.583 61.7458V59.4167C395.583 59.262 395.522 59.1136 395.412 59.0042C395.303 58.8948 395.155 58.8333 395 58.8333C394.845 58.8333 394.697 58.8948 394.588 59.0042C394.478 59.1136 394.417 59.262 394.417 59.4167V61.75C394.417 61.7515 394.417 61.7528 394.417 61.7542V62.3333C394.417 62.6428 394.294 62.9395 394.075 63.1583C393.856 63.3771 393.559 63.5 393.25 63.5C392.941 63.5 392.644 63.3771 392.425 63.1583C392.206 62.9395 392.083 62.6428 392.083 62.3333V53.2625C392.074 52.5125 392.233 51.7701 392.549 51.0896C392.911 50.3273 393.085 49.5724 393.169 48.3971C393.225 47.6179 393.243 46.6277 393.248 45.3099C393.79 45.3851 394.336 45.4208 394.883 45.4167C396.672 45.4167 397.579 45.1039 398.456 44.8015C399.279 44.5179 400.056 44.25 401.65 44.25C401.96 44.25 402.239 44.2603 402.494 44.2787C403.119 47.3912 403.75 50.6002 403.75 53.5833V58.25C403.75 58.4047 403.689 58.5531 403.579 58.6625C403.47 58.7719 403.321 58.8333 403.167 58.8333C403.012 58.8333 402.864 58.7719 402.754 58.6625C402.645 58.5531 402.583 58.4047 402.583 58.25V56.5C402.583 56.3453 402.522 56.1969 402.412 56.0875C402.303 55.9781 402.155 55.9167 402 55.9167ZM388.583 61.7542C388.583 61.7528 388.583 61.7515 388.583 61.75V59.4167C388.583 59.262 388.522 59.1136 388.412 59.0042C388.303 58.8948 388.155 58.8333 388 58.8333C387.845 58.8333 387.697 58.8948 387.588 59.0042C387.478 59.1136 387.417 59.262 387.417 59.4167V61.7458C387.417 61.7472 387.417 61.7485 387.417 61.75C387.417 61.9047 387.355 62.0531 387.246 62.1625C387.136 62.2719 386.988 62.3333 386.833 62.3333C386.679 62.3333 386.53 62.2719 386.421 62.1625C386.311 62.0531 386.25 61.9047 386.25 61.75V60.5862C386.25 60.5852 386.25 60.5843 386.25 60.5833V58.8333C386.25 58.6786 386.189 58.5302 386.079 58.4209C385.97 58.3115 385.821 58.25 385.667 58.25C385.512 58.25 385.364 58.3115 385.254 58.4209C385.145 58.5302 385.083 58.6786 385.083 58.8333V60.5805C385.083 60.5814 385.083 60.5824 385.083 60.5833C385.083 60.738 385.022 60.8864 384.912 60.9958C384.803 61.1052 384.655 61.1667 384.5 61.1667C384.345 61.1667 384.197 61.1052 384.088 60.9958C383.978 60.8864 383.917 60.738 383.917 60.5833V57.6667C383.917 57.512 383.855 57.3636 383.746 57.2542C383.636 57.1448 383.488 57.0833 383.333 57.0833C383.179 57.0833 383.03 57.1448 382.921 57.2542C382.811 57.3636 382.75 57.512 382.75 57.6667V59.4167C382.75 59.5714 382.689 59.7197 382.579 59.8291C382.47 59.9385 382.321 60 382.167 60C382.012 60 381.864 59.9385 381.754 59.8291C381.645 59.7197 381.583 59.5714 381.583 59.4167V56.5C381.583 56.3453 381.522 56.1969 381.412 56.0875C381.303 55.9781 381.155 55.9167 381 55.9167C380.845 55.9167 380.697 55.9781 380.588 56.0875C380.478 56.1969 380.417 56.3453 380.417 56.5V58.25C380.417 58.4047 380.355 58.5531 380.246 58.6625C380.136 58.7719 379.988 58.8333 379.833 58.8333C379.679 58.8333 379.53 58.7719 379.421 58.6625C379.311 58.5531 379.25 58.4047 379.25 58.25V53.5833C379.25 50.9492 379.742 48.139 380.288 45.3747C380.605 45.4015 380.956 45.4167 381.35 45.4167C383.139 45.4167 384.046 45.1039 384.923 44.8014C385.746 44.5179 386.522 44.25 388.116 44.25C388.663 44.2445 389.21 44.2854 389.75 44.3722C389.753 48.3725 389.805 49.7274 390.451 51.0888C390.767 51.7693 390.926 52.5117 390.917 53.2617V62.3333C390.917 62.6428 390.794 62.9395 390.575 63.1583C390.356 63.3771 390.059 63.5 389.75 63.5C389.441 63.5 389.144 63.3771 388.925 63.1583C388.706 62.9395 388.583 62.6428 388.583 62.3333L388.583 61.7542ZM381.581 37.8858C381.582 37.8683 381.583 37.8508 381.583 37.8333H389.75V43.1907C389.209 43.1154 388.663 43.0795 388.117 43.0833C386.327 43.0833 385.42 43.3961 384.543 43.6985C383.721 43.9821 382.944 44.25 381.35 44.25C381.044 44.25 380.769 44.2401 380.518 44.2221C380.527 44.1733 380.537 44.1241 380.547 44.0753C380.991 41.8618 381.411 39.7711 381.581 37.8858ZM401.417 37.8333C401.417 37.8508 401.418 37.8683 401.419 37.8858C401.564 39.4907 401.89 41.2448 402.258 43.0964C402.067 43.0879 401.865 43.0833 401.65 43.0833C399.86 43.0833 398.953 43.3961 398.076 43.6985C397.254 43.9821 396.477 44.25 394.883 44.25C394.336 44.2555 393.79 44.2147 393.25 44.128C393.25 43.849 393.25 43.5573 393.25 43.253V37.8333H401.417ZM392.083 43.2536C392.083 43.4526 392.083 43.6449 392.083 43.8321C391.951 43.7884 391.821 43.7438 391.69 43.6986C391.441 43.6127 391.189 43.5262 390.916 43.446V43.2536L390.917 37.8333H392.083V43.2536ZM390.917 44.6682C391.049 44.7115 391.178 44.7563 391.309 44.8013C391.558 44.8871 391.809 44.9737 392.082 45.0538C392.074 48.3989 392.004 49.509 391.5 50.5772C390.977 49.4693 390.922 48.3157 390.917 44.6683V44.6682ZM393.244 36.5845L392.756 33.1667H401.932L401.543 36.6667H393.25C393.25 36.6392 393.248 36.6117 393.244 36.5845ZM381.068 33.1667H390.244L389.756 36.5845C389.752 36.6117 389.75 36.6392 389.75 36.6667H381.457L381.068 33.1667ZM380.413 37.8333L380.414 37.839C380.246 39.6474 379.836 41.6873 379.403 43.8457C379.388 43.9164 379.375 43.9875 379.36 44.0584C378.952 43.9624 378.55 43.8423 378.157 43.6985C377.38 43.4309 376.581 43.1553 375.167 43.0954V37.8333H380.413ZM375.167 65.8333V44.2632C376.38 44.3202 377.061 44.5549 377.776 44.8014C378.22 44.9632 378.673 45.0975 379.133 45.2035C378.58 48.0062 378.083 50.8605 378.083 53.5833V58.25C378.083 58.5355 378.153 58.8167 378.287 59.069C378.42 59.3213 378.614 59.5371 378.85 59.6975C379.086 59.858 379.358 59.9582 379.642 59.9895C379.925 60.0207 380.213 59.9821 380.478 59.8769C380.543 60.1145 380.657 60.3357 380.813 60.5261C380.969 60.7165 381.164 60.8719 381.384 60.982C381.604 61.0921 381.845 61.1545 382.091 61.1651C382.337 61.1757 382.582 61.1343 382.811 61.0436C382.876 61.2811 382.99 61.5024 383.146 61.6928C383.302 61.8832 383.497 62.0386 383.717 62.1487C383.937 62.2588 384.178 62.3212 384.424 62.3318C384.67 62.3424 384.916 62.301 385.145 62.2102C385.213 62.4614 385.337 62.694 385.507 62.8913C385.676 63.0886 385.888 63.2455 386.126 63.3507C386.364 63.4558 386.623 63.5066 386.883 63.4991C387.143 63.4917 387.398 63.4264 387.63 63.3079C387.792 63.6611 388.04 63.9682 388.351 64.2012C388.662 64.4343 389.027 64.5858 389.411 64.6421C389.796 64.6983 390.188 64.6576 390.553 64.5234C390.918 64.3893 391.243 64.1661 391.5 63.8741C391.757 64.1661 392.082 64.3894 392.447 64.5235C392.812 64.6576 393.204 64.6984 393.589 64.6421C393.973 64.5859 394.338 64.4343 394.649 64.2013C394.96 63.9682 395.208 63.6611 395.37 63.3079C395.602 63.4264 395.857 63.4917 396.117 63.4991C396.377 63.5066 396.636 63.4558 396.874 63.3507C397.112 63.2455 397.324 63.0886 397.494 62.8913C397.663 62.694 397.787 62.4614 397.855 62.2102C398.084 62.301 398.33 62.3424 398.576 62.3318C398.822 62.3212 399.063 62.2588 399.283 62.1487C399.503 62.0386 399.698 61.8832 399.854 61.6928C400.01 61.5024 400.124 61.2811 400.189 61.0436C400.418 61.1343 400.663 61.1757 400.909 61.1651C401.155 61.1545 401.396 61.0921 401.616 60.982C401.837 60.8719 402.031 60.7165 402.187 60.5261C402.343 60.3357 402.457 60.1145 402.522 59.8769C402.788 59.9821 403.075 60.0207 403.358 59.9894C403.642 59.9581 403.914 59.8579 404.15 59.6975C404.386 59.537 404.58 59.3212 404.713 59.0689C404.847 58.8166 404.917 58.5355 404.917 58.25V53.5833C404.917 50.6193 404.328 47.4994 403.72 44.46C404.1 44.5538 404.475 44.6678 404.843 44.8015C405.619 45.0691 406.419 45.3447 407.833 45.4046V65.8333H375.167Z" fill="#1D1B44"/>
<path d="M384.15 48.8008C383.804 48.8008 383.466 48.9034 383.178 49.0957C382.89 49.288 382.666 49.5613 382.534 49.8811C382.401 50.2009 382.366 50.5527 382.434 50.8922C382.502 51.2317 382.668 51.5435 382.913 51.7882C383.158 52.033 383.47 52.1996 383.809 52.2672C384.148 52.3347 384.5 52.3 384.82 52.1676C385.14 52.0351 385.413 51.8108 385.605 51.523C385.798 51.2352 385.9 50.8969 385.9 50.5508C385.9 50.0868 385.715 49.642 385.387 49.3139C385.059 48.9859 384.614 48.8013 384.15 48.8008ZM384.15 51.1341C384.035 51.1341 383.922 51.0999 383.826 51.0358C383.73 50.9717 383.656 50.8806 383.611 50.774C383.567 50.6674 383.556 50.5501 383.578 50.437C383.601 50.3238 383.656 50.2199 383.738 50.1383C383.819 50.0567 383.923 50.0012 384.037 49.9787C384.15 49.9561 384.267 49.9677 384.374 50.0119C384.48 50.056 384.571 50.1308 384.635 50.2267C384.7 50.3226 384.734 50.4354 384.734 50.5508C384.734 50.7054 384.672 50.8537 384.563 50.9631C384.453 51.0724 384.305 51.1339 384.15 51.1341Z" fill="#1D1B44"/>
<path d="M377.85 61.3994C377.504 61.3994 377.166 61.5021 376.878 61.6943C376.59 61.8866 376.366 62.1599 376.233 62.4797C376.101 62.7995 376.066 63.1514 376.134 63.4908C376.201 63.8303 376.368 64.1421 376.613 64.3868C376.857 64.6316 377.169 64.7983 377.509 64.8658C377.848 64.9333 378.2 64.8987 378.52 64.7662C378.84 64.6337 379.113 64.4094 379.305 64.1217C379.497 63.8339 379.6 63.4955 379.6 63.1494C379.6 62.6855 379.415 62.2406 379.087 61.9126C378.759 61.5845 378.314 61.4 377.85 61.3994ZM377.85 63.7327C377.735 63.7327 377.622 63.6985 377.526 63.6344C377.43 63.5703 377.355 63.4792 377.311 63.3726C377.267 63.2661 377.255 63.1488 377.278 63.0356C377.3 62.9225 377.356 62.8185 377.438 62.7369C377.519 62.6554 377.623 62.5998 377.736 62.5773C377.849 62.5548 377.967 62.5663 378.073 62.6105C378.18 62.6546 378.271 62.7294 378.335 62.8253C378.399 62.9213 378.433 63.034 378.433 63.1494C378.433 63.3041 378.372 63.4523 378.262 63.5617C378.153 63.6711 378.005 63.7326 377.85 63.7327Z" fill="#1D1B44"/>
<path d="M381.7 63.5006C382.087 63.5006 382.4 63.1872 382.4 62.8006C382.4 62.414 382.087 62.1006 381.7 62.1006C381.314 62.1006 381 62.414 381 62.8006C381 63.1872 381.314 63.5006 381.7 63.5006Z" fill="#1D1B44"/>
<path d="M399.2 48.8008C398.923 48.8008 398.653 48.9034 398.422 49.0957C398.192 49.288 398.013 49.5613 397.907 49.8811C397.801 50.2009 397.773 50.5527 397.827 50.8922C397.881 51.2317 398.015 51.5435 398.21 51.7882C398.406 52.033 398.656 52.1996 398.927 52.2672C399.199 52.3347 399.48 52.3 399.736 52.1676C399.992 52.0351 400.211 51.8108 400.364 51.523C400.518 51.2352 400.6 50.8969 400.6 50.5508C400.6 50.0868 400.452 49.642 400.19 49.3139C399.927 48.9859 399.571 48.8013 399.2 48.8008ZM399.2 51.1341C399.108 51.1341 399.018 51.0999 398.941 51.0358C398.864 50.9717 398.804 50.8806 398.769 50.774C398.734 50.6674 398.725 50.5501 398.743 50.437C398.761 50.3238 398.805 50.2199 398.87 50.1383C398.936 50.0567 399.019 50.0012 399.109 49.9787C399.2 49.9561 399.294 49.9677 399.379 50.0119C399.464 50.056 399.537 50.1308 399.588 50.2267C399.64 50.3226 399.667 50.4354 399.667 50.5508C399.667 50.7054 399.618 50.8537 399.53 50.9631C399.443 51.0724 399.324 51.1339 399.2 51.1341Z" fill="#1D1B44"/>
<path d="M405.15 61.3994C404.804 61.3994 404.465 61.5021 404.178 61.6943C403.89 61.8866 403.666 62.1599 403.533 62.4797C403.401 62.7995 403.366 63.1514 403.434 63.4908C403.501 63.8303 403.668 64.1421 403.912 64.3868C404.157 64.6316 404.469 64.7983 404.808 64.8658C405.148 64.9333 405.5 64.8987 405.82 64.7662C406.139 64.6337 406.413 64.4094 406.605 64.1217C406.797 63.8339 406.9 63.4955 406.9 63.1494C406.899 62.6855 406.715 62.2406 406.387 61.9126C406.059 61.5845 405.614 61.4 405.15 61.3994ZM405.15 63.7327C405.035 63.7327 404.922 63.6985 404.826 63.6344C404.73 63.5703 404.655 63.4792 404.611 63.3726C404.567 63.2661 404.555 63.1488 404.578 63.0356C404.6 62.9225 404.656 62.8185 404.737 62.7369C404.819 62.6554 404.923 62.5998 405.036 62.5773C405.149 62.5548 405.267 62.5663 405.373 62.6105C405.48 62.6546 405.571 62.7294 405.635 62.8253C405.699 62.9213 405.733 63.034 405.733 63.1494C405.733 63.3041 405.672 63.4523 405.562 63.5617C405.453 63.6711 405.305 63.7326 405.15 63.7327Z" fill="#1D1B44"/>
<path d="M382.05 48.1004C382.243 48.1004 382.4 47.9437 382.4 47.7504C382.4 47.5571 382.243 47.4004 382.05 47.4004C381.857 47.4004 381.7 47.5571 381.7 47.7504C381.7 47.9437 381.857 48.1004 382.05 48.1004Z" fill="#1D1B44"/>
<path d="M401.3 47.4002C401.686 47.4002 402 47.2435 402 47.0502C402 46.8569 401.686 46.7002 401.3 46.7002C400.913 46.7002 400.6 46.8569 400.6 47.0502C400.6 47.2435 400.913 47.4002 401.3 47.4002Z" fill="#1D1B44"/>
<path d="M401.3 63.5006C401.686 63.5006 402 63.1872 402 62.8006C402 62.414 401.686 62.1006 401.3 62.1006C400.913 62.1006 400.6 62.414 400.6 62.8006C400.6 63.1872 400.913 63.5006 401.3 63.5006Z" fill="#1D1B44"/>
</g>
<defs>
<clipPath id="clip0_1_1438">
<rect width="413" height="140" fill="white"/>
</clipPath>
</defs>
</svg>
