<svg width="35" height="35" viewBox="0 0 35 35" fill="none" xmlns="http://www.w3.org/2000/svg">
<path d="M34.4167 4.66667H28.7166L29.1631 0.647792C29.1722 0.566251 29.1639 0.483715 29.1389 0.405575C29.1139 0.327434 29.0727 0.255445 29.018 0.194311C28.9633 0.133177 28.8963 0.0842713 28.8214 0.0507889C28.7465 0.0173065 28.6654 9.27839e-08 28.5833 5.61799e-10H18.0833C17.9998 -3.66716e-06 17.9172 0.0179513 17.8411 0.0526492C17.7651 0.087347 17.6974 0.137978 17.6426 0.201112C17.5879 0.264247 17.5473 0.338412 17.5237 0.418585C17.5001 0.498757 17.494 0.583066 17.5058 0.665802L18.0774 4.66667H16.9226L17.4942 0.665802C17.506 0.583066 17.4999 0.498757 17.4763 0.418585C17.4527 0.338412 17.4121 0.264247 17.3574 0.201112C17.3026 0.137978 17.2349 0.087347 17.1589 0.0526492C17.0828 0.0179513 17.0002 -3.66716e-06 16.9167 5.61799e-10H6.41667C6.33462 9.27839e-08 6.2535 0.0173065 6.1786 0.0507889C6.1037 0.0842713 6.03671 0.133177 5.982 0.194311C5.92728 0.255445 5.88608 0.327434 5.86108 0.405575C5.83608 0.483715 5.82784 0.566251 5.83691 0.647792L6.28337 4.66667H0.583333C0.428624 4.66667 0.280251 4.72812 0.170854 4.83752C0.0614581 4.94692 0 5.09529 0 5.25V34.4167C0 34.5714 0.0614581 34.7197 0.170854 34.8291C0.280251 34.9385 0.428624 35 0.583333 35H34.4167C34.5714 35 34.7197 34.9385 34.8291 34.8291C34.9385 34.7197 35 34.5714 35 34.4167V5.25C35 5.09529 34.9385 4.94692 34.8291 4.83752C34.7197 4.72812 34.5714 4.66667 34.4167 4.66667ZM33.8333 5.83333V12.2368C32.6196 12.1798 31.9387 11.9451 31.2234 11.6986C30.6549 11.4872 30.0686 11.327 29.4716 11.2201C29.0865 9.29316 28.7378 7.47141 28.5864 5.8388L28.5871 5.83311L33.8333 5.83333ZM28 23.9167C27.8453 23.9167 27.6969 23.9781 27.5875 24.0875C27.4781 24.1969 27.4167 24.3453 27.4167 24.5V27.4167C27.4167 27.5714 27.3552 27.7197 27.2458 27.8291C27.1364 27.9385 26.988 28 26.8333 28C26.6786 28 26.5302 27.9385 26.4209 27.8291C26.3115 27.7197 26.25 27.5714 26.25 27.4167V25.6667C26.25 25.512 26.1885 25.3636 26.0791 25.2542C25.9697 25.1448 25.8214 25.0833 25.6667 25.0833C25.512 25.0833 25.3636 25.1448 25.2542 25.2542C25.1448 25.3636 25.0833 25.512 25.0833 25.6667V28.5833C25.0833 28.738 25.0219 28.8864 24.9125 28.9958C24.8031 29.1052 24.6547 29.1667 24.5 29.1667C24.3453 29.1667 24.1969 29.1052 24.0875 28.9958C23.9781 28.8864 23.9167 28.738 23.9167 28.5833C23.9167 28.5824 23.9167 28.5814 23.9167 28.5805V26.8333C23.9167 26.6786 23.8552 26.5302 23.7458 26.4209C23.6364 26.3115 23.488 26.25 23.3333 26.25C23.1786 26.25 23.0302 26.3115 22.9209 26.4209C22.8115 26.5302 22.75 26.6786 22.75 26.8333V28.5833C22.75 28.5843 22.75 28.5852 22.75 28.5862V29.75C22.75 29.9047 22.6885 30.0531 22.5791 30.1625C22.4697 30.2719 22.3214 30.3333 22.1667 30.3333C22.012 30.3333 21.8636 30.2719 21.7542 30.1625C21.6448 30.0531 21.5833 29.9047 21.5833 29.75C21.5833 29.7485 21.5833 29.7472 21.5833 29.7458V27.4167C21.5833 27.262 21.5219 27.1136 21.4125 27.0042C21.3031 26.8948 21.1547 26.8333 21 26.8333C20.8453 26.8333 20.6969 26.8948 20.5875 27.0042C20.4781 27.1136 20.4167 27.262 20.4167 27.4167V29.75C20.4167 29.7515 20.4167 29.7528 20.4167 29.7542V30.3333C20.4167 30.6428 20.2938 30.9395 20.075 31.1583C19.8562 31.3771 19.5594 31.5 19.25 31.5C18.9406 31.5 18.6438 31.3771 18.425 31.1583C18.2062 30.9395 18.0833 30.6428 18.0833 30.3333V21.2625C18.0743 20.5125 18.2334 19.7701 18.5488 19.0896C18.9108 18.3273 19.0847 17.5724 19.1694 16.3971C19.2254 15.6179 19.2429 14.6277 19.2482 13.3099C19.7898 13.3851 20.3361 13.4208 20.8829 13.4167C22.6723 13.4167 23.5794 13.1039 24.4564 12.8015C25.279 12.5179 26.0557 12.25 27.65 12.25C27.9604 12.25 28.2395 12.2603 28.4942 12.2787C29.1185 15.3912 29.75 18.6002 29.75 21.5833V26.25C29.75 26.4047 29.6885 26.5531 29.5791 26.6625C29.4697 26.7719 29.3214 26.8333 29.1667 26.8333C29.012 26.8333 28.8636 26.7719 28.7542 26.6625C28.6448 26.5531 28.5833 26.4047 28.5833 26.25V24.5C28.5833 24.3453 28.5219 24.1969 28.4125 24.0875C28.3031 23.9781 28.1547 23.9167 28 23.9167ZM14.5833 29.7542C14.5833 29.7528 14.5833 29.7515 14.5833 29.75V27.4167C14.5833 27.262 14.5219 27.1136 14.4125 27.0042C14.3031 26.8948 14.1547 26.8333 14 26.8333C13.8453 26.8333 13.6969 26.8948 13.5875 27.0042C13.4781 27.1136 13.4167 27.262 13.4167 27.4167V29.7458C13.4167 29.7472 13.4167 29.7485 13.4167 29.75C13.4167 29.9047 13.3552 30.0531 13.2458 30.1625C13.1364 30.2719 12.988 30.3333 12.8333 30.3333C12.6786 30.3333 12.5302 30.2719 12.4209 30.1625C12.3115 30.0531 12.25 29.9047 12.25 29.75V28.5862C12.25 28.5852 12.25 28.5843 12.25 28.5833V26.8333C12.25 26.6786 12.1885 26.5302 12.0791 26.4209C11.9697 26.3115 11.8214 26.25 11.6667 26.25C11.512 26.25 11.3636 26.3115 11.2542 26.4209C11.1448 26.5302 11.0833 26.6786 11.0833 26.8333V28.5805C11.0833 28.5814 11.0833 28.5824 11.0833 28.5833C11.0833 28.738 11.0219 28.8864 10.9125 28.9958C10.8031 29.1052 10.6547 29.1667 10.5 29.1667C10.3453 29.1667 10.1969 29.1052 10.0875 28.9958C9.97812 28.8864 9.91667 28.738 9.91667 28.5833V25.6667C9.91667 25.512 9.85521 25.3636 9.74581 25.2542C9.63642 25.1448 9.48804 25.0833 9.33333 25.0833C9.17862 25.0833 9.03025 25.1448 8.92085 25.2542C8.81146 25.3636 8.75 25.512 8.75 25.6667V27.4167C8.75 27.5714 8.68854 27.7197 8.57915 27.8291C8.46975 27.9385 8.32138 28 8.16667 28C8.01196 28 7.86358 27.9385 7.75419 27.8291C7.64479 27.7197 7.58333 27.5714 7.58333 27.4167V24.5C7.58333 24.3453 7.52187 24.1969 7.41248 24.0875C7.30308 23.9781 7.15471 23.9167 7 23.9167C6.84529 23.9167 6.69692 23.9781 6.58752 24.0875C6.47812 24.1969 6.41667 24.3453 6.41667 24.5V26.25C6.41667 26.4047 6.35521 26.5531 6.24581 26.6625C6.13642 26.7719 5.98804 26.8333 5.83333 26.8333C5.67862 26.8333 5.53025 26.7719 5.42085 26.6625C5.31146 26.5531 5.25 26.4047 5.25 26.25V21.5833C5.25 18.9492 5.74248 16.139 6.28768 13.3747C6.60508 13.4015 6.95603 13.4167 7.34985 13.4167C9.13923 13.4167 10.0461 13.1039 10.9233 12.8014C11.7456 12.5179 12.5223 12.25 14.1162 12.25C14.6633 12.2445 15.2098 12.2854 15.75 12.3722C15.753 16.3725 15.8048 17.7274 16.4513 19.0888C16.7667 19.7693 16.9257 20.5117 16.9167 21.2617V30.3333C16.9167 30.6428 16.7938 30.9395 16.575 31.1583C16.3562 31.3771 16.0595 31.5 15.7501 31.5C15.4407 31.5 15.1439 31.3771 14.9251 31.1583C14.7063 30.9395 14.5834 30.6428 14.5834 30.3333L14.5833 29.7542ZM7.58093 5.88576C7.58246 5.86833 7.58297 5.85083 7.58297 5.83333H15.75V11.1907C15.2089 11.1154 14.663 11.0795 14.1167 11.0833C12.3274 11.0833 11.4204 11.3961 10.5433 11.6985C9.72052 11.9821 8.94367 12.25 7.35 12.25C7.04441 12.25 6.76915 12.2401 6.51751 12.2221C6.52735 12.1733 6.5372 12.1241 6.54668 12.0753C6.99125 9.86183 7.41096 7.77109 7.58093 5.88576ZM27.417 5.83333C27.417 5.85083 27.4175 5.86833 27.4191 5.88576C27.5638 7.49066 27.8896 9.24481 28.2576 11.0964C28.0667 11.0879 27.8648 11.0833 27.6499 11.0833C25.8605 11.0833 24.9535 11.3961 24.0764 11.6985C23.2536 11.9821 22.4769 12.25 20.8829 12.25C20.3361 12.2555 19.7899 12.2147 19.25 12.128C19.25 11.849 19.25 11.5573 19.25 11.253V5.83333H27.417ZM18.0833 11.2536C18.0833 11.4526 18.0833 11.6449 18.0833 11.8321C17.9508 11.7884 17.8208 11.7438 17.6896 11.6986C17.4407 11.6127 17.1894 11.5262 16.9162 11.446V11.2536L16.9167 5.83333H18.0833V11.2536ZM16.9167 12.6682C17.0487 12.7115 17.1784 12.7563 17.3093 12.8013C17.558 12.8871 17.8093 12.9737 18.0822 13.0538C18.0736 16.3989 18.0039 17.509 17.4998 18.5772C16.977 17.4693 16.9216 16.3157 16.9167 12.6683V12.6682ZM19.2442 4.58449L18.7559 1.16667H27.9316L27.5427 4.66667H19.25C19.25 4.63917 19.248 4.61171 19.2442 4.58449ZM7.0684 1.16667H16.2441L15.7555 4.58449C15.7518 4.61172 15.7499 4.63918 15.75 4.66667H7.45726L7.0684 1.16667ZM6.41295 5.83333L6.4136 5.83902C6.2459 7.64735 5.83632 9.68727 5.40305 11.8457C5.38847 11.9164 5.37461 11.9875 5.3604 12.0584C4.95239 11.9624 4.55047 11.8423 4.15676 11.6985C3.38049 11.4309 2.58052 11.1553 1.16667 11.0954V5.83333H6.41295ZM1.16667 33.8333V12.2632C2.38022 12.3202 3.06119 12.5549 3.77635 12.8014C4.21975 12.9632 4.67269 13.0975 5.1326 13.2035C4.58026 16.0062 4.08333 18.8605 4.08333 21.5833V26.25C4.08334 26.5355 4.15319 26.8167 4.28681 27.069C4.42042 27.3213 4.61373 27.5371 4.84989 27.6975C5.08605 27.858 5.35787 27.9582 5.64165 27.9895C5.92544 28.0207 6.21256 27.9821 6.47799 27.8769C6.54273 28.1145 6.65688 28.3357 6.81296 28.5261C6.96905 28.7165 7.16356 28.8719 7.38378 28.982C7.60401 29.0921 7.84499 29.1545 8.09098 29.1651C8.33697 29.1757 8.58243 29.1343 8.81132 29.0436C8.87607 29.2811 8.99021 29.5024 9.14629 29.6928C9.30238 29.8832 9.49689 30.0386 9.71711 30.1487C9.93734 30.2588 10.1783 30.3212 10.4243 30.3318C10.6703 30.3424 10.9158 30.301 11.1447 30.2102C11.2131 30.4614 11.3368 30.694 11.5065 30.8913C11.6763 31.0886 11.8879 31.2455 12.126 31.3507C12.3641 31.4558 12.6226 31.5066 12.8828 31.4991C13.143 31.4917 13.3982 31.4264 13.6299 31.3079C13.7921 31.6611 14.04 31.9682 14.3511 32.2012C14.6622 32.4343 15.0266 32.5858 15.4112 32.6421C15.7958 32.6983 16.1883 32.6576 16.5531 32.5234C16.918 32.3893 17.2434 32.1661 17.5 31.8741C17.7566 32.1661 18.082 32.3894 18.4469 32.5235C18.8117 32.6576 19.2043 32.6984 19.5889 32.6421C19.9735 32.5859 20.3379 32.4343 20.649 32.2013C20.9601 31.9682 21.208 31.6611 21.3701 31.3079C21.6018 31.4264 21.8571 31.4917 22.1173 31.4991C22.3774 31.5066 22.636 31.4558 22.8741 31.3507C23.1121 31.2455 23.3238 31.0886 23.4936 30.8913C23.6633 30.694 23.7869 30.4614 23.8554 30.2102C24.0843 30.301 24.3298 30.3424 24.5758 30.3318C24.8217 30.3212 25.0627 30.2588 25.283 30.1487C25.5032 30.0386 25.6977 29.8832 25.8538 29.6928C26.0099 29.5024 26.124 29.2811 26.1887 29.0436C26.4176 29.1343 26.6631 29.1757 26.9091 29.1651C27.1551 29.1545 27.3961 29.0921 27.6163 28.982C27.8365 28.8719 28.031 28.7165 28.1871 28.5261C28.3432 28.3357 28.4573 28.1145 28.5221 27.8769C28.7875 27.9821 29.0746 28.0207 29.3584 27.9894C29.6422 27.9581 29.914 27.8579 30.1501 27.6975C30.3863 27.537 30.5796 27.3212 30.7132 27.0689C30.8468 26.8166 30.9167 26.5355 30.9167 26.25V21.5833C30.9167 18.6193 30.328 15.4994 29.7202 12.46C30.1003 12.5538 30.4751 12.6678 30.8431 12.8015C31.6194 13.0691 32.4194 13.3447 33.8333 13.4046V33.8333H1.16667Z" fill="#979797"/>
</svg>
